<?xml version="1.0" encoding="utf-8"?>
<!-- Generator: Adobe Illustrator 19.2.0, SVG Export Plug-In . SVG Version: 6.00 Build 0)  -->
<svg version="1.1" xmlns="http://www.w3.org/2000/svg" xmlns:xlink="http://www.w3.org/1999/xlink" x="0px" y="0px"
	 viewBox="0 0 422 241.8" style="enable-background:new 0 0 422 241.8;" xml:space="preserve">
<style type="text/css">
	.st0{display:none;}
	.st1{display:inline;fill:#CF9867;}
	.st2{opacity:0.15;}
	.st3{fill-rule:evenodd;clip-rule:evenodd;}
	.st4{fill:#494756;}
	.st5{fill:#393747;}
	.st6{fill:#F15644;}
	.st7{fill:#B9C2C4;}
	.st8{fill:#D9E0E2;}
	.st9{fill:#6B7082;}
	.st10{fill:#E1E6E8;}
	.st11{opacity:0.75;}
	.st12{fill:#82869B;}
	.st13{fill:#D0D6D9;}
	.st14{fill:#E2E8E9;}
	.st15{fill:#C7D0D2;}
	.st16{fill:#E9EDEE;}
	.st17{fill-rule:evenodd;clip-rule:evenodd;fill:#393747;}
	.st18{fill-rule:evenodd;clip-rule:evenodd;fill:#494756;}
	.st19{fill-rule:evenodd;clip-rule:evenodd;fill:#F8F8F6;}
	.st20{fill-rule:evenodd;clip-rule:evenodd;fill:#8E684F;}
	.st21{fill-rule:evenodd;clip-rule:evenodd;fill:#725240;}
	.st22{fill-rule:evenodd;clip-rule:evenodd;fill:#563E32;}
	.st23{fill:#563E32;}
	.st24{fill-rule:evenodd;clip-rule:evenodd;fill:#82869B;}
	.st25{fill-rule:evenodd;clip-rule:evenodd;fill:#53515F;}
	.st26{fill-rule:evenodd;clip-rule:evenodd;fill:#D9E0E2;}
	.st27{display:inline;opacity:0.15;}
	.st28{display:inline;}
	.st29{fill-rule:evenodd;clip-rule:evenodd;fill:#555361;}
	.st30{fill-rule:evenodd;clip-rule:evenodd;fill:#C7D0D2;}
	.st31{fill-rule:evenodd;clip-rule:evenodd;fill:#615F6C;}
	.st32{fill-rule:evenodd;clip-rule:evenodd;fill:#5B5966;}
	.st33{fill-rule:evenodd;clip-rule:evenodd;fill:#595764;}
	.st34{fill:#45454C;}
	.st35{fill:#2F2F33;}
	.st36{fill:#725240;}
	.st37{fill:#8E684F;}
	.st38{fill:#BA8750;}
	.st39{fill:#A6AAAD;}
	.st40{fill:#DFE2E5;}
	.st41{fill:#FFFFFF;}
	.st42{opacity:0.25;}
</style>
<g id="BACKGROUND" class="st0">
	<rect x="-44.3" y="-18.5" class="st1" width="500" height="500"/>
</g>
<g id="OBJECTS">
	<g>
		<g class="st2">
			<path d="M97.9,134.1h2.5v-6.3h-2.5c-0.3,0-0.5,0.2-0.5,0.5v5.3C97.4,133.9,97.6,134.1,97.9,134.1z"/>
			<rect x="99.7" y="127.8" width="0.7" height="6.3"/>
			<rect x="97.4" y="128.5" width="0.6" height="4.8"/>
			<rect x="100.3" y="128.5" width="0.6" height="4.8"/>
			<path d="M298.2,119.1h-190c-4.2,0-7.7-3-8.5-7.1L82.9,18.6c-0.7-3.9,2.3-7.5,6.2-7.5h228.2c4,0,6.9,3.6,6.2,7.5L306.7,112
				C305.9,116.1,302.4,119.1,298.2,119.1z"/>
			<path d="M109.4,117.1c-4.2,0-7.7-3-8.5-7.1L84.3,18.8c-0.3-1.9,0.5-3.8,2.1-5c0.8-0.5,1.8-0.8,2.8-0.8h227.8c1,0,2,0.2,2.8,0.8
				c1.7,1.1,2.5,3.1,2.1,4.9L305.4,110c-0.7,4.1-4.3,7.1-8.5,7.1H109.4z"/>
			<polygon points="108.4,109.7 92.1,20.5 314.2,20.5 298,109.7 			"/>
			<path d="M300.1,237H106.3c-2.9,0-5.3-2.4-5.3-5.3V124.4c0-2.9,2.4-5.3,5.3-5.3h193.9c2.9,0,5.3,2.4,5.3,5.3v107.3
				C305.4,234.6,303,237,300.1,237z"/>
			<path d="M108.8,235.5c-3.5,0-6.3-2.8-6.3-6.3V126.9c0-3.5,2.8-6.3,6.3-6.3h118.5L183,235.5H108.8z"/>
			<path d="M89.1,14.6c-1,0-2,0.4-2.6,1.2c-0.6,0.8-0.9,1.8-0.7,2.8l16.4,89.9c0.7,4.1,4.3,7.1,8.5,7.1h58.5l38.9-101H89.1z"/>
			<polygon points="219.7,14.6 180.8,115.6 206.2,115.6 245.1,14.6 			"/>
			<polygon points="259.9,14.6 221,115.6 230.5,115.6 269.4,14.6 			"/>
			<rect x="132" y="117.6" width="142.5" height="10.9"/>
			<rect x="132" y="117.6" width="142.5" height="8.5"/>
			<path d="M272.8,189.4H133.6c-0.9,0-1.6-0.7-1.6-1.6V135c0-0.9,0.7-1.6,1.6-1.6h139.2c0.9,0,1.6,0.7,1.6,1.6v52.8
				C274.4,188.7,273.7,189.4,272.8,189.4z"/>
			<path d="M230,231h-53.7c-0.9,0-1.7-0.8-1.7-1.7v-33.4c0-0.9,0.8-1.7,1.7-1.7H230c0.9,0,1.7,0.8,1.7,1.7v33.4
				C231.7,230.3,231,231,230,231z"/>
			<path d="M175.1,197.1c0-1.4,1.1-2.5,2.5-2.5h53.1c-0.4-0.3-0.9-0.4-1.4-0.4h-52.1c-1.4,0-2.5,1.1-2.5,2.5v31.8
				c0,0.5,0.2,1,0.4,1.4V197.1z"/>
			<rect x="281.7" y="133.4" width="16.4" height="56"/>
			<rect x="108.3" y="133.4" width="16.4" height="56"/>
			<path d="M190.9,237h24.5c-0.6-1.1-1.7-1.8-3-1.8H194C192.7,235.2,191.5,235.9,190.9,237z"/>
			<path d="M215.4,237c-0.6-0.9-1.5-1.6-2.6-1.7c-1.1-0.1-2.1,0-3.2,0l-6.5,0l-6.5,0c-1.1,0-2.2,0-3.2,0c-1.1,0.1-2,0.8-2.6,1.7
				c0.5-0.9,1.5-1.6,2.6-1.8c1.1-0.1,2.2,0,3.2-0.1l6.5,0l6.5,0c1.1,0,2.1,0,3.2,0.1C214,235.3,214.9,236,215.4,237z"/>
			<rect x="274.4" y="117.6" width="0.5" height="10.9"/>
			<rect x="131.5" y="117.6" width="0.5" height="10.9"/>
			<ellipse cx="203.2" cy="17.8" rx="0.8" ry="0.7"/>
			<path d="M203.2,18.2c-0.4,0-0.7-0.2-0.8-0.6c0,0,0,0.1,0,0.1c0,0.4,0.4,0.7,0.8,0.7c0.4,0,0.8-0.3,0.8-0.7c0,0,0-0.1,0-0.1
				C203.9,18,203.6,18.2,203.2,18.2z"/>
			<path class="st3" d="M133.8,134.6h7.6c0.3,0,0.5,0.2,0.5,0.5v3.6c0,0.3-0.2,0.5-0.5,0.5h-7.6c-0.3,0-0.5-0.2-0.5-0.5v-3.6
				C133.3,134.8,133.5,134.6,133.8,134.6z"/>
			<path class="st3" d="M143.9,134.6h7.6c0.3,0,0.5,0.2,0.5,0.5v3.6c0,0.3-0.2,0.5-0.5,0.5h-7.6c-0.3,0-0.5-0.2-0.5-0.5v-3.6
				C143.4,134.8,143.6,134.6,143.9,134.6z"/>
			<path class="st3" d="M154,134.6h7.6c0.3,0,0.5,0.2,0.5,0.5v3.6c0,0.3-0.2,0.5-0.5,0.5H154c-0.3,0-0.5-0.2-0.5-0.5v-3.6
				C153.5,134.8,153.7,134.6,154,134.6z"/>
			<path class="st3" d="M163.9,134.6h7.6c0.3,0,0.5,0.2,0.5,0.5v3.6c0,0.3-0.2,0.5-0.5,0.5h-7.6c-0.3,0-0.5-0.2-0.5-0.5v-3.6
				C163.4,134.8,163.6,134.6,163.9,134.6z"/>
			<path class="st3" d="M173.9,134.6h7.6c0.3,0,0.5,0.2,0.5,0.5v3.6c0,0.3-0.2,0.5-0.5,0.5h-7.6c-0.3,0-0.5-0.2-0.5-0.5v-3.6
				C173.4,134.8,173.6,134.6,173.9,134.6z"/>
			<path class="st3" d="M184.2,134.6h7.6c0.3,0,0.5,0.2,0.5,0.5v3.6c0,0.3-0.2,0.5-0.5,0.5h-7.6c-0.3,0-0.5-0.2-0.5-0.5v-3.6
				C183.6,134.8,183.9,134.6,184.2,134.6z"/>
			<path class="st3" d="M194.3,134.6h7.6c0.3,0,0.5,0.2,0.5,0.5v3.6c0,0.3-0.2,0.5-0.5,0.5h-7.6c-0.3,0-0.5-0.2-0.5-0.5v-3.6
				C193.8,134.8,194,134.6,194.3,134.6z"/>
			<path class="st3" d="M204.3,134.6h7.6c0.3,0,0.5,0.2,0.5,0.5v3.6c0,0.3-0.2,0.5-0.5,0.5h-7.6c-0.3,0-0.5-0.2-0.5-0.5v-3.6
				C203.8,134.8,204,134.6,204.3,134.6z"/>
			<path class="st3" d="M214.6,134.6h7.6c0.3,0,0.5,0.2,0.5,0.5v3.6c0,0.3-0.2,0.5-0.5,0.5h-7.6c-0.3,0-0.5-0.2-0.5-0.5v-3.6
				C214,134.8,214.3,134.6,214.6,134.6z"/>
			<path class="st3" d="M224.6,134.6h7.6c0.3,0,0.5,0.2,0.5,0.5v3.6c0,0.3-0.2,0.5-0.5,0.5h-7.6c-0.3,0-0.5-0.2-0.5-0.5v-3.6
				C224.1,134.8,224.3,134.6,224.6,134.6z"/>
			<path class="st3" d="M234.5,134.6h7.6c0.3,0,0.5,0.2,0.5,0.5v3.6c0,0.3-0.2,0.5-0.5,0.5h-7.6c-0.3,0-0.5-0.2-0.5-0.5v-3.6
				C234,134.8,234.2,134.6,234.5,134.6z"/>
			<path class="st3" d="M244.8,134.6h7.6c0.3,0,0.5,0.2,0.5,0.5v3.6c0,0.3-0.2,0.5-0.5,0.5h-7.6c-0.3,0-0.5-0.2-0.5-0.5v-3.6
				C244.2,134.8,244.5,134.6,244.8,134.6z"/>
			<path class="st3" d="M254.8,134.6h7.6c0.3,0,0.5,0.2,0.5,0.5v3.6c0,0.3-0.2,0.5-0.5,0.5h-7.6c-0.3,0-0.5-0.2-0.5-0.5v-3.6
				C254.2,134.8,254.5,134.6,254.8,134.6z"/>
			<path class="st3" d="M264.9,134.6h7.6c0.3,0,0.5,0.2,0.5,0.5v3.6c0,0.3-0.2,0.5-0.5,0.5h-7.6c-0.3,0-0.5-0.2-0.5-0.5v-3.6
				C264.3,134.8,264.6,134.6,264.9,134.6z"/>
			<path class="st3" d="M245.6,183.4h7.6c0.3,0,0.5,0.2,0.5,0.5v3.6c0,0.3-0.2,0.5-0.5,0.5h-7.6c-0.3,0-0.5-0.2-0.5-0.5v-3.6
				C245.1,183.6,245.3,183.4,245.6,183.4z"/>
			<path class="st3" d="M265.1,183.4h7.6c0.3,0,0.5,0.2,0.5,0.5v3.6c0,0.3-0.2,0.5-0.5,0.5h-7.6c-0.3,0-0.5-0.2-0.5-0.5v-3.6
				C264.6,183.6,264.8,183.4,265.1,183.4z"/>
			<path class="st3" d="M255.3,178.6h7.3c0.3,0,0.6,0.3,0.6,0.6v8.5c0,0.3-0.3,0.6-0.6,0.6h-7.3c-0.3,0-0.6-0.3-0.6-0.6v-8.5
				C254.7,178.8,255,178.6,255.3,178.6z"/>
			<path class="st3" d="M133.7,140.6h7.3c0.3,0,0.6,0.3,0.6,0.6v7c0,0.3-0.3,0.6-0.6,0.6h-7.3c-0.3,0-0.6-0.3-0.6-0.6v-7
				C133.1,140.8,133.4,140.6,133.7,140.6z"/>
			<path class="st3" d="M143.6,140.6h7.3c0.3,0,0.6,0.3,0.6,0.6v7c0,0.3-0.3,0.6-0.6,0.6h-7.3c-0.3,0-0.6-0.3-0.6-0.6v-7
				C143,140.8,143.3,140.6,143.6,140.6z"/>
			<path class="st3" d="M153.2,140.6h7.3c0.3,0,0.6,0.3,0.6,0.6v7c0,0.3-0.2,0.6-0.6,0.6h-7.3c-0.3,0-0.6-0.3-0.6-0.6v-7
				C152.7,140.8,152.9,140.6,153.2,140.6z"/>
			<path class="st3" d="M163,140.6h7.3c0.3,0,0.6,0.3,0.6,0.6v7c0,0.3-0.3,0.6-0.6,0.6H163c-0.3,0-0.6-0.3-0.6-0.6v-7
				C162.5,140.8,162.7,140.6,163,140.6z"/>
			<path class="st3" d="M172.6,140.6h7.3c0.3,0,0.6,0.3,0.6,0.6v7c0,0.3-0.3,0.6-0.6,0.6h-7.3c-0.3,0-0.6-0.3-0.6-0.6v-7
				C172.1,140.8,172.3,140.6,172.6,140.6z"/>
			<path class="st3" d="M182.5,140.6h7.3c0.3,0,0.6,0.3,0.6,0.6v7c0,0.3-0.3,0.6-0.6,0.6h-7.3c-0.3,0-0.6-0.3-0.6-0.6v-7
				C182,140.8,182.2,140.6,182.5,140.6z"/>
			<path class="st3" d="M192.3,140.6h7.3c0.3,0,0.6,0.3,0.6,0.6v7c0,0.3-0.3,0.6-0.6,0.6h-7.3c-0.3,0-0.6-0.3-0.6-0.6v-7
				C191.7,140.8,191.9,140.6,192.3,140.6z"/>
			<path class="st3" d="M202,140.6h7.3c0.3,0,0.6,0.3,0.6,0.6v7c0,0.3-0.2,0.6-0.6,0.6H202c-0.3,0-0.6-0.3-0.6-0.6v-7
				C201.4,140.9,201.7,140.6,202,140.6z"/>
			<path class="st3" d="M211.7,140.6h7.3c0.3,0,0.6,0.3,0.6,0.6v7c0,0.3-0.3,0.6-0.6,0.6h-7.3c-0.3,0-0.6-0.3-0.6-0.6v-7
				C211.1,140.9,211.4,140.6,211.7,140.6z"/>
			<path class="st3" d="M221.5,140.6h7.3c0.3,0,0.6,0.3,0.6,0.6v7c0,0.3-0.3,0.6-0.6,0.6h-7.3c-0.3,0-0.6-0.3-0.6-0.6v-7
				C220.9,140.9,221.2,140.6,221.5,140.6z"/>
			<path class="st3" d="M231.1,140.6h7.3c0.3,0,0.6,0.3,0.6,0.6v7c0,0.3-0.3,0.6-0.6,0.6h-7.3c-0.3,0-0.6-0.3-0.6-0.6v-7
				C230.5,140.8,230.8,140.6,231.1,140.6z"/>
			<path class="st3" d="M240.9,140.6h7.3c0.3,0,0.6,0.3,0.6,0.6v7c0,0.3-0.3,0.6-0.6,0.6h-7.3c-0.3,0-0.6-0.3-0.6-0.6v-7
				C240.4,140.9,240.6,140.6,240.9,140.6z"/>
			<path class="st3" d="M250.5,140.6h7.3c0.3,0,0.6,0.3,0.6,0.6v7c0,0.3-0.3,0.6-0.6,0.6h-7.3c-0.3,0-0.6-0.3-0.6-0.6v-7
				C250,140.9,250.2,140.6,250.5,140.6z"/>
			<path class="st3" d="M148.2,150h7.3c0.3,0,0.6,0.3,0.6,0.6v7c0,0.3-0.3,0.6-0.6,0.6h-7.3c-0.3,0-0.6-0.3-0.6-0.6v-7
				C147.6,150.3,147.8,150,148.2,150z"/>
			<path class="st3" d="M158,150h7.3c0.3,0,0.6,0.3,0.6,0.6v7c0,0.3-0.3,0.6-0.6,0.6H158c-0.3,0-0.6-0.3-0.6-0.6v-7
				C157.5,150.3,157.7,150,158,150z"/>
			<path class="st3" d="M167.7,150h7.3c0.3,0,0.6,0.3,0.6,0.6v7c0,0.3-0.3,0.6-0.6,0.6h-7.3c-0.3,0-0.6-0.3-0.6-0.6v-7
				C167.1,150.3,167.4,150,167.7,150z"/>
			<path class="st3" d="M177.5,150h7.3c0.3,0,0.6,0.3,0.6,0.6v7c0,0.3-0.3,0.6-0.6,0.6h-7.3c-0.3,0-0.6-0.3-0.6-0.6v-7
				C177,150.3,177.2,150,177.5,150z"/>
			<path class="st3" d="M187.1,150h7.3c0.3,0,0.6,0.3,0.6,0.6v7c0,0.3-0.3,0.6-0.6,0.6h-7.3c-0.3,0-0.6-0.3-0.6-0.6v-7
				C186.5,150.3,186.8,150,187.1,150z"/>
			<path class="st3" d="M197,150h7.3c0.3,0,0.6,0.3,0.6,0.6v7c0,0.3-0.3,0.6-0.6,0.6H197c-0.3,0-0.6-0.3-0.6-0.6v-7
				C196.4,150.3,196.7,150,197,150z"/>
			<path class="st3" d="M206.7,150h7.3c0.3,0,0.6,0.3,0.6,0.6v7c0,0.3-0.3,0.6-0.6,0.6h-7.3c-0.3,0-0.6-0.3-0.6-0.6v-7
				C206.2,150.3,206.4,150,206.7,150z"/>
			<path class="st3" d="M216.5,150.1h7.3c0.3,0,0.6,0.3,0.6,0.6v7c0,0.3-0.3,0.6-0.6,0.6h-7.3c-0.3,0-0.6-0.3-0.6-0.6v-7
				C215.9,150.3,216.2,150.1,216.5,150.1z"/>
			<path class="st3" d="M226.1,150.1h7.3c0.3,0,0.6,0.3,0.6,0.6v7c0,0.3-0.3,0.6-0.6,0.6h-7.3c-0.3,0-0.6-0.3-0.6-0.6v-7
				C225.6,150.3,225.8,150.1,226.1,150.1z"/>
			<path class="st3" d="M235.9,150.1h7.3c0.3,0,0.6,0.3,0.6,0.6v7c0,0.3-0.3,0.6-0.6,0.6h-7.3c-0.3,0-0.6-0.3-0.6-0.6v-7
				C235.4,150.3,235.6,150.1,235.9,150.1z"/>
			<path class="st3" d="M245.5,150h7.3c0.3,0,0.6,0.3,0.6,0.6v7c0,0.3-0.3,0.6-0.6,0.6h-7.3c-0.3,0-0.6-0.3-0.6-0.6v-7
				C245,150.3,245.2,150,245.5,150z"/>
			<path class="st3" d="M255.4,150.1h7.3c0.3,0,0.6,0.3,0.6,0.6v7c0,0.3-0.3,0.6-0.6,0.6h-7.3c-0.3,0-0.6-0.3-0.6-0.6v-7
				C254.9,150.3,255.1,150.1,255.4,150.1z"/>
			<path class="st3" d="M265,150.1h7.3c0.3,0,0.6,0.3,0.6,0.6v7c0,0.3-0.3,0.6-0.6,0.6H265c-0.3,0-0.6-0.3-0.6-0.6v-7
				C264.4,150.3,264.7,150.1,265,150.1z"/>
			<path class="st3" d="M150.7,159.6h7.3c0.3,0,0.6,0.3,0.6,0.6v7c0,0.3-0.2,0.6-0.6,0.6h-7.3c-0.3,0-0.6-0.3-0.6-0.6v-7
				C150.2,159.8,150.4,159.6,150.7,159.6z"/>
			<path class="st3" d="M160.6,159.6h7.3c0.3,0,0.6,0.3,0.6,0.6v7c0,0.3-0.3,0.6-0.6,0.6h-7.3c-0.3,0-0.6-0.3-0.6-0.6v-7
				C160,159.8,160.3,159.6,160.6,159.6z"/>
			<path class="st3" d="M170.3,159.6h7.3c0.3,0,0.6,0.3,0.6,0.6v7c0,0.3-0.3,0.6-0.6,0.6h-7.3c-0.3,0-0.6-0.3-0.6-0.6v-7
				C169.7,159.8,170,159.6,170.3,159.6z"/>
			<path class="st3" d="M180.1,159.6h7.3c0.3,0,0.6,0.3,0.6,0.6v7c0,0.3-0.2,0.6-0.6,0.6h-7.3c-0.3,0-0.6-0.3-0.6-0.6v-7
				C179.5,159.8,179.8,159.6,180.1,159.6z"/>
			<path class="st3" d="M189.7,159.6h7.3c0.3,0,0.6,0.3,0.6,0.6v7c0,0.3-0.3,0.6-0.6,0.6h-7.3c-0.3,0-0.6-0.3-0.6-0.6v-7
				C189.1,159.8,189.4,159.6,189.7,159.6z"/>
			<path class="st3" d="M199.5,159.6h7.3c0.3,0,0.6,0.3,0.6,0.6v7c0,0.3-0.3,0.6-0.6,0.6h-7.3c-0.3,0-0.6-0.3-0.6-0.6v-7
				C199,159.8,199.2,159.6,199.5,159.6z"/>
			<path class="st3" d="M209.3,159.6h7.3c0.3,0,0.6,0.3,0.6,0.6v7c0,0.3-0.3,0.6-0.6,0.6h-7.3c-0.3,0-0.6-0.3-0.6-0.6v-7
				C208.7,159.8,209,159.6,209.3,159.6z"/>
			<path class="st3" d="M219,159.6h7.3c0.3,0,0.6,0.3,0.6,0.6v7c0,0.3-0.3,0.6-0.6,0.6H219c-0.3,0-0.6-0.3-0.6-0.6v-7
				C218.5,159.9,218.7,159.6,219,159.6z"/>
			<path class="st3" d="M228.7,159.6h7.3c0.3,0,0.6,0.3,0.6,0.6v7c0,0.3-0.3,0.6-0.6,0.6h-7.3c-0.3,0-0.6-0.3-0.6-0.6v-7
				C228.1,159.9,228.4,159.6,228.7,159.6z"/>
			<path class="st3" d="M238.5,159.6h7.3c0.3,0,0.6,0.3,0.6,0.6v7c0,0.3-0.3,0.6-0.6,0.6h-7.3c-0.3,0-0.6-0.3-0.6-0.6v-7
				C237.9,159.9,238.2,159.6,238.5,159.6z"/>
			<path class="st3" d="M248.1,159.6h7.3c0.3,0,0.6,0.3,0.6,0.6v7c0,0.3-0.3,0.6-0.6,0.6h-7.3c-0.3,0-0.6-0.3-0.6-0.6v-7
				C247.5,159.8,247.8,159.6,248.1,159.6z"/>
			<path class="st3" d="M155.5,169.1h7.3c0.3,0,0.6,0.3,0.6,0.6v7c0,0.3-0.3,0.6-0.6,0.6h-7.3c-0.3,0-0.6-0.3-0.6-0.6v-7
				C154.9,169.3,155.2,169.1,155.5,169.1z"/>
			<path class="st3" d="M165.3,169.1h7.3c0.3,0,0.6,0.3,0.6,0.6v7c0,0.3-0.3,0.6-0.6,0.6h-7.3c-0.3,0-0.6-0.3-0.6-0.6v-7
				C164.8,169.3,165,169.1,165.3,169.1z"/>
			<path class="st3" d="M175,169.1h7.3c0.3,0,0.6,0.3,0.6,0.6v7c0,0.3-0.3,0.6-0.6,0.6H175c-0.3,0-0.6-0.3-0.6-0.6v-7
				C174.5,169.3,174.7,169.1,175,169.1z"/>
			<path class="st3" d="M184.8,169.1h7.3c0.3,0,0.6,0.3,0.6,0.6v7c0,0.3-0.3,0.6-0.6,0.6h-7.3c-0.3,0-0.6-0.3-0.6-0.6v-7
				C184.3,169.3,184.5,169.1,184.8,169.1z"/>
			<path class="st3" d="M194.4,169.1h7.3c0.3,0,0.6,0.3,0.6,0.6v7c0,0.3-0.3,0.6-0.6,0.6h-7.3c-0.3,0-0.6-0.3-0.6-0.6v-7
				C193.9,169.3,194.1,169.1,194.4,169.1z"/>
			<path class="st3" d="M204.3,169.1h7.3c0.3,0,0.6,0.3,0.6,0.6v7c0,0.3-0.3,0.6-0.6,0.6h-7.3c-0.3,0-0.6-0.3-0.6-0.6v-7
				C203.7,169.3,204,169.1,204.3,169.1z"/>
			<path class="st3" d="M214,169.1h7.3c0.3,0,0.6,0.3,0.6,0.6v7c0,0.3-0.2,0.6-0.6,0.6H214c-0.3,0-0.6-0.3-0.6-0.6v-7
				C213.5,169.3,213.7,169.1,214,169.1z"/>
			<path class="st3" d="M223.8,169.1h7.3c0.3,0,0.6,0.3,0.6,0.6v7c0,0.3-0.2,0.6-0.6,0.6h-7.3c-0.3,0-0.6-0.3-0.6-0.6v-7
				C223.2,169.4,223.5,169.1,223.8,169.1z"/>
			<path class="st3" d="M233.4,169.1h7.3c0.3,0,0.6,0.3,0.6,0.6v7c0,0.3-0.3,0.6-0.6,0.6h-7.3c-0.3,0-0.6-0.3-0.6-0.6v-7
				C232.9,169.4,233.1,169.1,233.4,169.1z"/>
			<path class="st3" d="M243.3,169.1h7.3c0.3,0,0.6,0.3,0.6,0.6v7c0,0.3-0.3,0.6-0.6,0.6h-7.3c-0.3,0-0.6-0.3-0.6-0.6v-7
				C242.7,169.4,242.9,169.1,243.3,169.1z"/>
			<path class="st3" d="M260.3,140.6h12.1c0.3,0,0.6,0.3,0.6,0.6v7c0,0.3-0.3,0.6-0.6,0.6h-12.1c-0.3,0-0.6-0.3-0.6-0.6v-7
				C259.8,140.9,260,140.6,260.3,140.6z"/>
			<path class="st3" d="M257.9,159.6h14.5c0.3,0,0.6,0.3,0.6,0.6v7c0,0.3-0.3,0.6-0.6,0.6h-14.5c-0.3,0-0.6-0.3-0.6-0.6v-7
				C257.3,159.9,257.6,159.6,257.9,159.6z"/>
			<path class="st3" d="M252.9,169.1h19.5c0.3,0,0.6,0.3,0.6,0.6v7.2c0,0.3-0.3,0.6-0.6,0.6h-19.5c-0.3,0-0.6-0.3-0.6-0.6v-7.2
				C252.3,169.3,252.6,169.1,252.9,169.1z"/>
			<path class="st3" d="M235.8,178.4h7.5c0.3,0,0.6,0.3,0.6,0.6v8.5c0,0.3-0.3,0.6-0.6,0.6h-7.5c-0.3,0-0.6-0.3-0.6-0.6V179
				C235.2,178.7,235.5,178.4,235.8,178.4z"/>
			<path class="st3" d="M223.8,178.6h9.8c0.3,0,0.6,0.2,0.6,0.5v8.3c0,0.3-0.3,0.5-0.6,0.5h-9.8c-0.3,0-0.6-0.2-0.6-0.5v-8.3
				C223.2,178.8,223.5,178.6,223.8,178.6z"/>
			<path class="st3" d="M161.3,179v8.4c0,0.3-0.3,0.6-0.6,0.6h-7.5c-0.3,0-0.6-0.3-0.6-0.6V179c0-0.3,0.3-0.6,0.6-0.6h7.5
				C161,178.4,161.3,178.6,161.3,179z"/>
			<path class="st3" d="M173.3,178.9v8.3c0,0.3-0.3,0.6-0.6,0.6h-9.8c-0.3,0-0.6-0.2-0.6-0.6v-8.3c0-0.3,0.3-0.6,0.6-0.6h9.8
				C173,178.4,173.3,178.6,173.3,178.9z"/>
			<path class="st3" d="M151.5,179v8.4c0,0.3-0.3,0.6-0.6,0.6h-7.5c-0.3,0-0.6-0.3-0.6-0.6V179c0-0.3,0.3-0.6,0.6-0.6h7.5
				C151.2,178.4,151.5,178.6,151.5,179z"/>
			<path class="st3" d="M141.8,179v8.4c0,0.3-0.3,0.6-0.6,0.6h-7.5c-0.3,0-0.6-0.3-0.6-0.6V179c0-0.3,0.3-0.6,0.6-0.6h7.5
				C141.5,178.4,141.8,178.6,141.8,179z"/>
			<path class="st3" d="M133.7,169.1h19.4c0.3,0,0.6,0.3,0.6,0.6v6.9c0,0.3-0.3,0.6-0.6,0.6h-19.4c-0.3,0-0.6-0.3-0.6-0.6v-6.9
				C133.1,169.4,133.4,169.1,133.7,169.1z"/>
			<path class="st3" d="M133.7,159.6h14.7c0.3,0,0.6,0.3,0.6,0.6v6.8c0,0.3-0.3,0.6-0.6,0.6h-14.7c-0.3,0-0.6-0.3-0.6-0.6v-6.8
				C133.1,159.9,133.4,159.6,133.7,159.6z"/>
			<path class="st3" d="M133.7,150h12.2c0.3,0,0.6,0.3,0.6,0.6v7.2c0,0.3-0.3,0.6-0.6,0.6h-12.2c-0.3,0-0.6-0.3-0.6-0.6v-7.2
				C133.1,150.3,133.4,150,133.7,150z"/>
			<path class="st3" d="M175.2,178.6h46.1c0.3,0,0.6,0.3,0.6,0.6v8.4c0,0.3-0.3,0.6-0.6,0.6h-46.1c-0.3,0-0.6-0.3-0.6-0.6v-8.4
				C174.6,178.8,174.9,178.6,175.2,178.6z"/>
		</g>
		<g>
			<g>
				<g>
					<path class="st4" d="M92.6,128.8H95v-6.3h-2.5c-0.3,0-0.5,0.2-0.5,0.5v5.3C92.1,128.6,92.3,128.8,92.6,128.8z"/>
					<rect x="94.4" y="122.5" class="st5" width="0.7" height="6.3"/>
					<rect x="92.1" y="123.2" class="st6" width="0.6" height="4.8"/>
					<rect x="95" y="123.2" class="st7" width="0.6" height="4.8"/>
				</g>
				<path class="st8" d="M292.9,113.8h-190c-4.2,0-7.7-3-8.5-7.1L77.6,13.3c-0.7-3.9,2.3-7.5,6.2-7.5h228.2c4,0,6.9,3.6,6.2,7.5
					l-16.8,93.3C300.6,110.8,297,113.8,292.9,113.8z"/>
				<path class="st5" d="M104.1,111.8c-4.2,0-7.7-3-8.5-7.1L79,13.5c-0.3-1.9,0.5-3.8,2.1-5C82,8,83,7.8,84,7.8h227.8
					c1,0,2,0.2,2.8,0.8c1.7,1.1,2.5,3.1,2.1,4.9l-16.6,91.2c-0.7,4.1-4.3,7.1-8.5,7.1H104.1z"/>
				<polygon class="st9" points="103.1,104.4 86.8,15.2 308.9,15.2 292.7,104.4 				"/>
				<path class="st8" d="M294.8,231.7H100.9c-2.9,0-5.3-2.4-5.3-5.3V119.1c0-2.9,2.4-5.3,5.3-5.3h193.9c2.9,0,5.3,2.4,5.3,5.3v107.3
					C300.1,229.3,297.7,231.7,294.8,231.7z"/>
				<path class="st10" d="M103.5,230.2c-3.5,0-6.3-2.8-6.3-6.3V121.6c0-3.5,2.8-6.3,6.3-6.3h118.5l-44.2,114.9H103.5z"/>
				<g class="st11">
					<path class="st12" d="M83.8,9.3c-1,0-2,0.4-2.6,1.2c-0.6,0.8-0.9,1.8-0.7,2.8l16.4,89.9c0.7,4.1,4.3,7.1,8.5,7.1h58.5l38.9-101
						H83.8z"/>
					<polygon class="st12" points="214.4,9.3 175.5,110.3 200.9,110.3 239.8,9.3 					"/>
					<polygon class="st12" points="254.6,9.3 215.7,110.3 225.2,110.3 264.1,9.3 					"/>
				</g>
				<rect x="126.6" y="112.3" class="st5" width="142.5" height="10.9"/>
				<rect x="126.6" y="112.3" class="st4" width="142.5" height="8.5"/>
				<path class="st13" d="M267.5,184.1H128.3c-0.9,0-1.6-0.7-1.6-1.6v-52.8c0-0.9,0.7-1.6,1.6-1.6h139.2c0.9,0,1.6,0.7,1.6,1.6v52.8
					C269.1,183.3,268.4,184.1,267.5,184.1z"/>
				<path class="st14" d="M224.7,225.7H171c-0.9,0-1.7-0.8-1.7-1.7v-33.4c0-0.9,0.8-1.7,1.7-1.7h53.7c0.9,0,1.7,0.8,1.7,1.7V224
					C226.4,224.9,225.7,225.7,224.7,225.7z"/>
				<path class="st15" d="M169.8,191.8c0-1.4,1.1-2.5,2.5-2.5h53.1c-0.4-0.3-0.9-0.4-1.4-0.4h-52.1c-1.4,0-2.5,1.1-2.5,2.5v31.8
					c0,0.5,0.2,1,0.4,1.4V191.8z"/>
				<rect x="276.4" y="128.1" class="st13" width="16.4" height="56"/>
				<rect x="103" y="128.1" class="st13" width="16.4" height="56"/>
				<path class="st15" d="M185.6,231.7h24.5c-0.6-1.1-1.7-1.8-3-1.8h-18.4C187.4,229.9,186.2,230.6,185.6,231.7z"/>
				<path class="st16" d="M210.1,231.7c-0.6-0.9-1.5-1.6-2.6-1.7c-1.1-0.1-2.1,0-3.2,0l-6.5,0l-6.5,0c-1.1,0-2.2,0-3.2,0
					c-1.1,0.1-2,0.8-2.6,1.7c0.5-0.9,1.5-1.6,2.6-1.8c1.1-0.1,2.2,0,3.2-0.1l6.5,0l6.5,0c1.1,0,2.1,0,3.2,0.1
					C208.6,230,209.6,230.7,210.1,231.7z"/>
				<rect x="269.1" y="112.3" class="st16" width="0.5" height="10.9"/>
				<rect x="126.2" y="112.3" class="st16" width="0.5" height="10.9"/>
				<g>
					<ellipse class="st5" cx="197.9" cy="12.5" rx="0.8" ry="0.7"/>
					<path class="st12" d="M197.9,12.9c-0.4,0-0.7-0.2-0.8-0.6c0,0,0,0.1,0,0.1c0,0.4,0.4,0.7,0.8,0.7c0.4,0,0.8-0.3,0.8-0.7
						c0,0,0-0.1,0-0.1C198.6,12.7,198.3,12.9,197.9,12.9z"/>
				</g>
				<g>
					<path class="st17" d="M128.5,129.3h7.6c0.3,0,0.5,0.2,0.5,0.5v3.6c0,0.3-0.2,0.5-0.5,0.5h-7.6c-0.3,0-0.5-0.2-0.5-0.5v-3.6
						C128,129.5,128.2,129.3,128.5,129.3z"/>
					<path class="st17" d="M138.6,129.3h7.6c0.3,0,0.5,0.2,0.5,0.5v3.6c0,0.3-0.2,0.5-0.5,0.5h-7.6c-0.3,0-0.5-0.2-0.5-0.5v-3.6
						C138.1,129.5,138.3,129.3,138.6,129.3z"/>
					<path class="st17" d="M148.7,129.3h7.6c0.3,0,0.5,0.2,0.5,0.5v3.6c0,0.3-0.2,0.5-0.5,0.5h-7.6c-0.3,0-0.5-0.2-0.5-0.5v-3.6
						C148.2,129.5,148.4,129.3,148.7,129.3z"/>
					<path class="st17" d="M158.6,129.3h7.6c0.3,0,0.5,0.2,0.5,0.5v3.6c0,0.3-0.2,0.5-0.5,0.5h-7.6c-0.3,0-0.5-0.2-0.5-0.5v-3.6
						C158.1,129.5,158.3,129.3,158.6,129.3z"/>
					<path class="st17" d="M168.6,129.3h7.6c0.3,0,0.5,0.2,0.5,0.5v3.6c0,0.3-0.2,0.5-0.5,0.5h-7.6c-0.3,0-0.5-0.2-0.5-0.5v-3.6
						C168.1,129.5,168.3,129.3,168.6,129.3z"/>
					<path class="st17" d="M178.8,129.3h7.6c0.3,0,0.5,0.2,0.5,0.5v3.6c0,0.3-0.2,0.5-0.5,0.5h-7.6c-0.3,0-0.5-0.2-0.5-0.5v-3.6
						C178.3,129.5,178.5,129.3,178.8,129.3z"/>
					<path class="st17" d="M189,129.3h7.6c0.3,0,0.5,0.2,0.5,0.5v3.6c0,0.3-0.2,0.5-0.5,0.5H189c-0.3,0-0.5-0.2-0.5-0.5v-3.6
						C188.5,129.5,188.7,129.3,189,129.3z"/>
					<path class="st17" d="M199,129.3h7.6c0.3,0,0.5,0.2,0.5,0.5v3.6c0,0.3-0.2,0.5-0.5,0.5H199c-0.3,0-0.5-0.2-0.5-0.5v-3.6
						C198.5,129.5,198.7,129.3,199,129.3z"/>
					<path class="st17" d="M209.3,129.3h7.6c0.3,0,0.5,0.2,0.5,0.5v3.6c0,0.3-0.2,0.5-0.5,0.5h-7.6c-0.3,0-0.5-0.2-0.5-0.5v-3.6
						C208.7,129.5,209,129.3,209.3,129.3z"/>
					<path class="st17" d="M219.3,129.3h7.6c0.3,0,0.5,0.2,0.5,0.5v3.6c0,0.3-0.2,0.5-0.5,0.5h-7.6c-0.3,0-0.5-0.2-0.5-0.5v-3.6
						C218.7,129.5,219,129.3,219.3,129.3z"/>
					<path class="st17" d="M229.2,129.3h7.6c0.3,0,0.5,0.2,0.5,0.5v3.6c0,0.3-0.2,0.5-0.5,0.5h-7.6c-0.3,0-0.5-0.2-0.5-0.5v-3.6
						C228.7,129.5,228.9,129.3,229.2,129.3z"/>
					<path class="st17" d="M239.5,129.3h7.6c0.3,0,0.5,0.2,0.5,0.5v3.6c0,0.3-0.2,0.5-0.5,0.5h-7.6c-0.3,0-0.5-0.2-0.5-0.5v-3.6
						C238.9,129.5,239.2,129.3,239.5,129.3z"/>
					<path class="st17" d="M249.4,129.3h7.6c0.3,0,0.5,0.2,0.5,0.5v3.6c0,0.3-0.2,0.5-0.5,0.5h-7.6c-0.3,0-0.5-0.2-0.5-0.5v-3.6
						C248.9,129.5,249.1,129.3,249.4,129.3z"/>
					<path class="st17" d="M259.6,129.3h7.6c0.3,0,0.5,0.2,0.5,0.5v3.6c0,0.3-0.2,0.5-0.5,0.5h-7.6c-0.3,0-0.5-0.2-0.5-0.5v-3.6
						C259,129.5,259.3,129.3,259.6,129.3z"/>
					<path class="st17" d="M240.3,178h7.6c0.3,0,0.5,0.2,0.5,0.5v3.6c0,0.3-0.2,0.5-0.5,0.5h-7.6c-0.3,0-0.5-0.2-0.5-0.5v-3.6
						C239.8,178.3,240,178,240.3,178z"/>
					<path class="st17" d="M259.8,178h7.6c0.3,0,0.5,0.2,0.5,0.5v3.6c0,0.3-0.2,0.5-0.5,0.5h-7.6c-0.3,0-0.5-0.2-0.5-0.5v-3.6
						C259.2,178.3,259.5,178,259.8,178z"/>
					<path class="st17" d="M250,173.2h7.3c0.3,0,0.6,0.3,0.6,0.6v8.5c0,0.3-0.3,0.6-0.6,0.6H250c-0.3,0-0.6-0.3-0.6-0.6v-8.5
						C249.4,173.5,249.7,173.2,250,173.2z"/>
					<path class="st17" d="M128.4,135.3h7.3c0.3,0,0.6,0.3,0.6,0.6v7c0,0.3-0.3,0.6-0.6,0.6h-7.3c-0.3,0-0.6-0.3-0.6-0.6v-7
						C127.8,135.5,128.1,135.3,128.4,135.3z"/>
					<path class="st17" d="M138.3,135.3h7.3c0.3,0,0.6,0.3,0.6,0.6v7c0,0.3-0.3,0.6-0.6,0.6h-7.3c-0.3,0-0.6-0.3-0.6-0.6v-7
						C137.7,135.5,137.9,135.3,138.3,135.3z"/>
					<path class="st17" d="M147.9,135.3h7.3c0.3,0,0.6,0.3,0.6,0.6v7c0,0.3-0.2,0.6-0.6,0.6h-7.3c-0.3,0-0.6-0.3-0.6-0.6v-7
						C147.4,135.5,147.6,135.3,147.9,135.3z"/>
					<path class="st17" d="M157.7,135.3h7.3c0.3,0,0.6,0.3,0.6,0.6v7c0,0.3-0.3,0.6-0.6,0.6h-7.3c-0.3,0-0.6-0.3-0.6-0.6v-7
						C157.2,135.5,157.4,135.3,157.7,135.3z"/>
					<path class="st17" d="M167.3,135.3h7.3c0.3,0,0.6,0.3,0.6,0.6v7c0,0.3-0.3,0.6-0.6,0.6h-7.3c-0.3,0-0.6-0.3-0.6-0.6v-7
						C166.8,135.5,167,135.3,167.3,135.3z"/>
					<path class="st17" d="M177.2,135.3h7.3c0.3,0,0.6,0.3,0.6,0.6v7c0,0.3-0.3,0.6-0.6,0.6h-7.3c-0.3,0-0.6-0.3-0.6-0.6v-7
						C176.6,135.5,176.9,135.3,177.2,135.3z"/>
					<path class="st17" d="M186.9,135.3h7.3c0.3,0,0.6,0.3,0.6,0.6v7c0,0.3-0.3,0.6-0.6,0.6h-7.3c-0.3,0-0.6-0.3-0.6-0.6v-7
						C186.4,135.5,186.6,135.3,186.9,135.3z"/>
					<path class="st17" d="M196.7,135.3h7.3c0.3,0,0.6,0.3,0.6,0.6v7c0,0.3-0.2,0.6-0.6,0.6h-7.3c-0.3,0-0.6-0.3-0.6-0.6v-7
						C196.1,135.6,196.4,135.3,196.7,135.3z"/>
					<path class="st17" d="M206.4,135.3h7.3c0.3,0,0.6,0.3,0.6,0.6v7c0,0.3-0.3,0.6-0.6,0.6h-7.3c-0.3,0-0.6-0.3-0.6-0.6v-7
						C205.8,135.6,206,135.3,206.4,135.3z"/>
					<path class="st17" d="M216.2,135.3h7.3c0.3,0,0.6,0.3,0.6,0.6v7c0,0.3-0.3,0.6-0.6,0.6h-7.3c-0.3,0-0.6-0.3-0.6-0.6v-7
						C215.6,135.6,215.9,135.3,216.2,135.3z"/>
					<path class="st17" d="M225.8,135.3h7.3c0.3,0,0.6,0.3,0.6,0.6v7c0,0.3-0.3,0.6-0.6,0.6h-7.3c-0.3,0-0.6-0.3-0.6-0.6v-7
						C225.2,135.5,225.4,135.3,225.8,135.3z"/>
					<path class="st17" d="M235.6,135.3h7.3c0.3,0,0.6,0.3,0.6,0.6v7c0,0.3-0.3,0.6-0.6,0.6h-7.3c-0.3,0-0.6-0.3-0.6-0.6v-7
						C235.1,135.6,235.3,135.3,235.6,135.3z"/>
					<path class="st17" d="M245.2,135.3h7.3c0.3,0,0.6,0.3,0.6,0.6v7c0,0.3-0.3,0.6-0.6,0.6h-7.3c-0.3,0-0.6-0.3-0.6-0.6v-7
						C244.7,135.6,244.9,135.3,245.2,135.3z"/>
					<path class="st17" d="M142.8,144.7h7.3c0.3,0,0.6,0.3,0.6,0.6v7c0,0.3-0.3,0.6-0.6,0.6h-7.3c-0.3,0-0.6-0.3-0.6-0.6v-7
						C142.3,145,142.5,144.7,142.8,144.7z"/>
					<path class="st17" d="M152.7,144.7h7.3c0.3,0,0.6,0.3,0.6,0.6v7c0,0.3-0.3,0.6-0.6,0.6h-7.3c-0.3,0-0.6-0.3-0.6-0.6v-7
						C152.2,145,152.4,144.7,152.7,144.7z"/>
					<path class="st17" d="M162.4,144.7h7.3c0.3,0,0.6,0.3,0.6,0.6v7c0,0.3-0.3,0.6-0.6,0.6h-7.3c-0.3,0-0.6-0.3-0.6-0.6v-7
						C161.8,145,162.1,144.7,162.4,144.7z"/>
					<path class="st17" d="M172.2,144.7h7.3c0.3,0,0.6,0.3,0.6,0.6v7c0,0.3-0.3,0.6-0.6,0.6h-7.3c-0.3,0-0.6-0.3-0.6-0.6v-7
						C171.6,145,171.9,144.7,172.2,144.7z"/>
					<path class="st17" d="M181.8,144.7h7.3c0.3,0,0.6,0.3,0.6,0.6v7c0,0.3-0.3,0.6-0.6,0.6h-7.3c-0.3,0-0.6-0.3-0.6-0.6v-7
						C181.2,145,181.5,144.7,181.8,144.7z"/>
					<path class="st17" d="M191.7,144.7h7.3c0.3,0,0.6,0.3,0.6,0.6v7c0,0.3-0.3,0.6-0.6,0.6h-7.3c-0.3,0-0.6-0.3-0.6-0.6v-7
						C191.1,145,191.4,144.7,191.7,144.7z"/>
					<path class="st17" d="M201.4,144.7h7.3c0.3,0,0.6,0.3,0.6,0.6v7c0,0.3-0.3,0.6-0.6,0.6h-7.3c-0.3,0-0.6-0.3-0.6-0.6v-7
						C200.9,145,201.1,144.7,201.4,144.7z"/>
					<path class="st17" d="M211.2,144.8h7.3c0.3,0,0.6,0.3,0.6,0.6v7c0,0.3-0.3,0.6-0.6,0.6h-7.3c-0.3,0-0.6-0.3-0.6-0.6v-7
						C210.6,145,210.8,144.8,211.2,144.8z"/>
					<path class="st17" d="M220.8,144.8h7.3c0.3,0,0.6,0.3,0.6,0.6v7c0,0.3-0.3,0.6-0.6,0.6h-7.3c-0.3,0-0.6-0.3-0.6-0.6v-7
						C220.3,145,220.5,144.8,220.8,144.8z"/>
					<path class="st17" d="M230.6,144.8h7.3c0.3,0,0.6,0.3,0.6,0.6v7c0,0.3-0.3,0.6-0.6,0.6h-7.3c-0.3,0-0.6-0.3-0.6-0.6v-7
						C230.1,145,230.3,144.8,230.6,144.8z"/>
					<path class="st17" d="M240.2,144.7h7.3c0.3,0,0.6,0.3,0.6,0.6v7c0,0.3-0.3,0.6-0.6,0.6h-7.3c-0.3,0-0.6-0.3-0.6-0.6v-7
						C239.7,145,239.9,144.7,240.2,144.7z"/>
					<path class="st17" d="M250.1,144.8h7.3c0.3,0,0.6,0.3,0.6,0.6v7c0,0.3-0.3,0.6-0.6,0.6h-7.3c-0.3,0-0.6-0.3-0.6-0.6v-7
						C249.5,145,249.8,144.8,250.1,144.8z"/>
					<path class="st17" d="M259.7,144.8h7.3c0.3,0,0.6,0.3,0.6,0.6v7c0,0.3-0.3,0.6-0.6,0.6h-7.3c-0.3,0-0.6-0.3-0.6-0.6v-7
						C259.1,145,259.4,144.8,259.7,144.8z"/>
					<path class="st17" d="M145.4,154.3h7.3c0.3,0,0.6,0.3,0.6,0.6v7c0,0.3-0.2,0.6-0.6,0.6h-7.3c-0.3,0-0.6-0.3-0.6-0.6v-7
						C144.8,154.5,145.1,154.3,145.4,154.3z"/>
					<path class="st17" d="M155.3,154.3h7.3c0.3,0,0.6,0.3,0.6,0.6v7c0,0.3-0.3,0.6-0.6,0.6h-7.3c-0.3,0-0.6-0.3-0.6-0.6v-7
						C154.7,154.5,155,154.3,155.3,154.3z"/>
					<path class="st17" d="M165,154.3h7.3c0.3,0,0.6,0.3,0.6,0.6v7c0,0.3-0.3,0.6-0.6,0.6H165c-0.3,0-0.6-0.3-0.6-0.6v-7
						C164.4,154.5,164.6,154.3,165,154.3z"/>
					<path class="st17" d="M174.8,154.3h7.3c0.3,0,0.6,0.3,0.6,0.6v7c0,0.3-0.2,0.6-0.6,0.6h-7.3c-0.3,0-0.6-0.3-0.6-0.6v-7
						C174.2,154.5,174.5,154.3,174.8,154.3z"/>
					<path class="st17" d="M184.4,154.3h7.3c0.3,0,0.6,0.3,0.6,0.6v7c0,0.3-0.3,0.6-0.6,0.6h-7.3c-0.3,0-0.6-0.3-0.6-0.6v-7
						C183.8,154.5,184,154.3,184.4,154.3z"/>
					<path class="st17" d="M194.2,154.3h7.3c0.3,0,0.6,0.3,0.6,0.6v7c0,0.3-0.3,0.6-0.6,0.6h-7.3c-0.3,0-0.6-0.3-0.6-0.6v-7
						C193.7,154.5,193.9,154.3,194.2,154.3z"/>
					<path class="st17" d="M204,154.3h7.3c0.3,0,0.6,0.3,0.6,0.6v7c0,0.3-0.3,0.6-0.6,0.6H204c-0.3,0-0.6-0.3-0.6-0.6v-7
						C203.4,154.5,203.7,154.3,204,154.3z"/>
					<path class="st17" d="M213.7,154.3h7.3c0.3,0,0.6,0.3,0.6,0.6v7c0,0.3-0.3,0.6-0.6,0.6h-7.3c-0.3,0-0.6-0.3-0.6-0.6v-7
						C213.2,154.6,213.4,154.3,213.7,154.3z"/>
					<path class="st17" d="M223.4,154.3h7.3c0.3,0,0.6,0.3,0.6,0.6v7c0,0.3-0.3,0.6-0.6,0.6h-7.3c-0.3,0-0.6-0.3-0.6-0.6v-7
						C222.8,154.6,223.1,154.3,223.4,154.3z"/>
					<path class="st17" d="M233.2,154.3h7.3c0.3,0,0.6,0.3,0.6,0.6v7c0,0.3-0.3,0.6-0.6,0.6h-7.3c-0.3,0-0.6-0.3-0.6-0.6v-7
						C232.6,154.6,232.9,154.3,233.2,154.3z"/>
					<path class="st17" d="M242.8,154.3h7.3c0.3,0,0.6,0.3,0.6,0.6v7c0,0.3-0.3,0.6-0.6,0.6h-7.3c-0.3,0-0.6-0.3-0.6-0.6v-7
						C242.2,154.5,242.5,154.3,242.8,154.3z"/>
					<path class="st17" d="M150.2,163.8h7.3c0.3,0,0.6,0.3,0.6,0.6v7c0,0.3-0.3,0.6-0.6,0.6h-7.3c-0.3,0-0.6-0.3-0.6-0.6v-7
						C149.6,164,149.9,163.8,150.2,163.8z"/>
					<path class="st17" d="M160,163.8h7.3c0.3,0,0.6,0.3,0.6,0.6v7c0,0.3-0.3,0.6-0.6,0.6H160c-0.3,0-0.6-0.3-0.6-0.6v-7
						C159.5,164,159.7,163.8,160,163.8z"/>
					<path class="st17" d="M169.7,163.8h7.3c0.3,0,0.6,0.3,0.6,0.6v7c0,0.3-0.3,0.6-0.6,0.6h-7.3c-0.3,0-0.6-0.3-0.6-0.6v-7
						C169.1,164,169.4,163.8,169.7,163.8z"/>
					<path class="st17" d="M179.5,163.8h7.3c0.3,0,0.6,0.3,0.6,0.6v7c0,0.3-0.3,0.6-0.6,0.6h-7.3c-0.3,0-0.6-0.3-0.6-0.6v-7
						C179,164,179.2,163.8,179.5,163.8z"/>
					<path class="st17" d="M189.1,163.8h7.3c0.3,0,0.6,0.3,0.6,0.6v7c0,0.3-0.3,0.6-0.6,0.6h-7.3c-0.3,0-0.6-0.3-0.6-0.6v-7
						C188.6,164,188.8,163.8,189.1,163.8z"/>
					<path class="st17" d="M199,163.8h7.3c0.3,0,0.6,0.3,0.6,0.6v7c0,0.3-0.3,0.6-0.6,0.6H199c-0.3,0-0.6-0.3-0.6-0.6v-7
						C198.4,164,198.7,163.8,199,163.8z"/>
					<path class="st17" d="M208.7,163.8h7.3c0.3,0,0.6,0.3,0.6,0.6v7c0,0.3-0.2,0.6-0.6,0.6h-7.3c-0.3,0-0.6-0.3-0.6-0.6v-7
						C208.2,164,208.4,163.8,208.7,163.8z"/>
					<path class="st17" d="M218.5,163.8h7.3c0.3,0,0.6,0.3,0.6,0.6v7c0,0.3-0.2,0.6-0.6,0.6h-7.3c-0.3,0-0.6-0.3-0.6-0.6v-7
						C217.9,164.1,218.2,163.8,218.5,163.8z"/>
					<path class="st17" d="M228.1,163.8h7.3c0.3,0,0.6,0.3,0.6,0.6v7c0,0.3-0.3,0.6-0.6,0.6h-7.3c-0.3,0-0.6-0.3-0.6-0.6v-7
						C227.6,164.1,227.8,163.8,228.1,163.8z"/>
					<path class="st17" d="M237.9,163.8h7.3c0.3,0,0.6,0.3,0.6,0.6v7c0,0.3-0.3,0.6-0.6,0.6h-7.3c-0.3,0-0.6-0.3-0.6-0.6v-7
						C237.4,164.1,237.6,163.8,237.9,163.8z"/>
					<path class="st17" d="M255,135.3h12.1c0.3,0,0.6,0.3,0.6,0.6v7c0,0.3-0.3,0.6-0.6,0.6H255c-0.3,0-0.6-0.3-0.6-0.6v-7
						C254.4,135.6,254.7,135.3,255,135.3z"/>
					<path class="st17" d="M252.6,154.3H267c0.3,0,0.6,0.3,0.6,0.6v7c0,0.3-0.3,0.6-0.6,0.6h-14.5c-0.3,0-0.6-0.3-0.6-0.6v-7
						C252,154.6,252.3,154.3,252.6,154.3z"/>
					<path class="st17" d="M247.6,163.7h19.5c0.3,0,0.6,0.3,0.6,0.6v7.2c0,0.3-0.3,0.6-0.6,0.6h-19.5c-0.3,0-0.6-0.3-0.6-0.6v-7.2
						C247,164,247.3,163.7,247.6,163.7z"/>
					<path class="st17" d="M230.5,173.1h7.5c0.3,0,0.6,0.3,0.6,0.6v8.5c0,0.3-0.3,0.6-0.6,0.6h-7.5c-0.3,0-0.6-0.3-0.6-0.6v-8.5
						C229.9,173.3,230.2,173.1,230.5,173.1z"/>
					<path class="st17" d="M218.5,173.2h9.8c0.3,0,0.6,0.2,0.6,0.5v8.3c0,0.3-0.3,0.5-0.6,0.5h-9.8c-0.3,0-0.6-0.2-0.6-0.5v-8.3
						C217.9,173.5,218.2,173.2,218.5,173.2z"/>
					<path class="st17" d="M156,173.7v8.4c0,0.3-0.3,0.6-0.6,0.6h-7.5c-0.3,0-0.6-0.3-0.6-0.6v-8.4c0-0.3,0.3-0.6,0.6-0.6h7.5
						C155.7,173.1,156,173.3,156,173.7z"/>
					<path class="st17" d="M167.9,173.6v8.3c0,0.3-0.3,0.6-0.6,0.6h-9.8c-0.3,0-0.6-0.2-0.6-0.6v-8.3c0-0.3,0.3-0.6,0.6-0.6h9.8
						C167.7,173.1,167.9,173.3,167.9,173.6z"/>
					<path class="st17" d="M146.2,173.7v8.4c0,0.3-0.3,0.6-0.6,0.6h-7.5c-0.3,0-0.6-0.3-0.6-0.6v-8.4c0-0.3,0.3-0.6,0.6-0.6h7.5
						C145.9,173.1,146.2,173.3,146.2,173.7z"/>
					<path class="st17" d="M136.5,173.7v8.4c0,0.3-0.3,0.6-0.6,0.6h-7.5c-0.3,0-0.6-0.3-0.6-0.6v-8.4c0-0.3,0.3-0.6,0.6-0.6h7.5
						C136.2,173.1,136.5,173.3,136.5,173.7z"/>
					<path class="st17" d="M128.4,163.8h19.4c0.3,0,0.6,0.3,0.6,0.6v6.9c0,0.3-0.3,0.6-0.6,0.6h-19.4c-0.3,0-0.6-0.3-0.6-0.6v-6.9
						C127.8,164.1,128.1,163.8,128.4,163.8z"/>
					<path class="st17" d="M128.4,154.3h14.7c0.3,0,0.6,0.3,0.6,0.6v6.8c0,0.3-0.3,0.6-0.6,0.6h-14.7c-0.3,0-0.6-0.3-0.6-0.6v-6.8
						C127.8,154.6,128.1,154.3,128.4,154.3z"/>
					<path class="st17" d="M128.4,144.7h12.2c0.3,0,0.6,0.3,0.6,0.6v7.2c0,0.3-0.3,0.6-0.6,0.6h-12.2c-0.3,0-0.6-0.3-0.6-0.6v-7.2
						C127.8,145,128.1,144.7,128.4,144.7z"/>
					<path class="st17" d="M169.9,173.2h46.1c0.3,0,0.6,0.3,0.6,0.6v8.4c0,0.3-0.3,0.6-0.6,0.6h-46.1c-0.3,0-0.6-0.3-0.6-0.6v-8.4
						C169.3,173.5,169.6,173.2,169.9,173.2z"/>
				</g>
			</g>
		</g>
	</g>
	<g>
		<g class="st2">
			<path class="st3" d="M385.5,235.2c-1.7,1.7-4.6,1.7-6.3,0l-6-6c-1.7-1.7-1.7-4.6,0-6.3l0,0c1.7-1.7,4.6-1.7,6.3,0l6,6
				C387.3,230.6,387.3,233.4,385.5,235.2L385.5,235.2z"/>
			<path class="st3" d="M373.3,229.2l6,6c1.7,1.7,4.6,1.7,6.3,0l-12.3-12.3C371.5,224.6,371.5,227.5,373.3,229.2z"/>
			<path class="st3" d="M377.3,188c10.3,10.3,10.3,27.1,0,37.5c-10.3,10.3-27.1,10.3-37.5,0c-10.3-10.3-10.3-27.1,0-37.5
				C350.2,177.7,366.9,177.7,377.3,188z"/>
			<path class="st3" d="M376.1,189.1c9.7,9.7,9.7,25.4,0,35.1c-9.7,9.7-25.4,9.7-35.1,0c-9.7-9.7-9.7-25.4,0-35.1
				C350.6,179.4,366.4,179.4,376.1,189.1z"/>
			<path class="st3" d="M374.6,190.5c8.9,8.9,8.9,23.4,0,32.3c-8.9,8.9-23.4,8.9-32.3,0c-8.9-8.9-8.9-23.4,0-32.3
				C351.3,181.6,365.7,181.6,374.6,190.5z"/>
			<path class="st3" d="M337.6,206.6c0-11.6,9.4-20.9,20.9-20.9c11.6,0,20.9,9.4,20.9,20.9c0,11.6-9.4,20.9-20.9,20.9
				C346.9,227.6,337.6,218.2,337.6,206.6z"/>
			<path class="st3" d="M341.3,208.5c0-11.6,9.4-20.9,20.9-20.9c2.7,0,5.2,0.5,7.6,1.4c-3.3-2.1-7.1-3.3-11.3-3.3
				c-11.6,0-20.9,9.4-20.9,20.9c0,8.9,5.5,16.5,13.3,19.5C345.1,222.4,341.3,215.9,341.3,208.5z"/>
			<path class="st3" d="M370.7,191c-1.5-0.4,2.2,3.4,2.8,5.6c0.5,2.1-2.7,5-1.1,8.1c1.6,3.2-3.7,3.7-6.5,8.3
				c-2.8,4.5,3,8.8-1.3,11.1c-4.3,2.3-7.5,2.5-6.4,2.7c1,0.2,8.6,0,14.6-6.5c6-6.5,6-14,5.3-17.7C377.4,199,373.6,191.9,370.7,191z"
				/>
			<path class="st3" d="M367.6,218.7c0.4-0.5,1.1-0.6,1.6-0.2c0.5,0.4,0.6,1.1,0.2,1.6c-0.4,0.5-1.1,0.6-1.6,0.2
				C367.4,219.8,367.3,219.1,367.6,218.7z"/>
			<path class="st3" d="M372,208.6c0.5-0.6,1.3-0.7,1.9-0.3c0.6,0.4,0.7,1.2,0.3,1.8c-0.5,0.6-1.3,0.7-1.9,0.3
				C371.7,210,371.5,209.2,372,208.6z"/>
			<path class="st3" d="M366.8,214.9c0.3-0.3,0.8-0.4,1.1-0.1c0.4,0.3,0.4,0.7,0.2,1.1c-0.3,0.3-0.8,0.4-1.1,0.1
				C366.6,215.7,366.5,215.2,366.8,214.9z"/>
			<path class="st3" d="M368.9,216.6c0.2-0.2,0.5-0.2,0.7-0.1c0.2,0.2,0.3,0.4,0.1,0.6c-0.2,0.2-0.5,0.2-0.7,0.1
				C368.8,217.1,368.7,216.8,368.9,216.6z"/>
			<path class="st3" d="M366.4,217c0.1-0.1,0.3-0.2,0.5-0.1c0.2,0.1,0.2,0.3,0.1,0.5c-0.1,0.1-0.3,0.2-0.5,0.1
				C366.3,217.4,366.3,217.2,366.4,217z"/>
			
				<ellipse transform="matrix(6.384024e-002 -0.998 0.998 6.384024e-002 135.9231 567.4166)" class="st3" cx="370.4" cy="211.3" rx="0.8" ry="0.8"/>
			
				<ellipse transform="matrix(6.386115e-002 -0.998 0.998 6.386115e-002 132.0068 566.761)" class="st3" cx="368.1" cy="213" rx="0.5" ry="0.5"/>
			<path class="st3" d="M370.2,214.3c0.1,0.1,0,0.3-0.1,0.3c-0.1,0.1-0.3,0-0.3-0.1c-0.1-0.1,0-0.3,0.1-0.3
				C369.9,214.1,370.1,214.2,370.2,214.3z"/>
			<path class="st3" d="M371.6,215.3c0.1,0.2,0.1,0.5-0.1,0.6c-0.2,0.1-0.5,0.1-0.7-0.1c-0.1-0.2-0.1-0.5,0.1-0.6
				C371.2,215,371.5,215.1,371.6,215.3z"/>
			<path class="st3" d="M376.1,214.4c-0.3,0.3-0.8,0.2-1.1-0.1c-0.3-0.3-0.3-0.8,0.1-1.1c0.3-0.3,0.8-0.3,1.1,0.1
				C376.4,213.6,376.4,214.1,376.1,214.4z"/>
			<path class="st3" d="M373.7,212.5c-0.1,0.1-0.3,0.1-0.4,0c-0.1-0.1-0.1-0.3,0-0.4s0.3-0.1,0.4,0
				C373.9,212.2,373.9,212.4,373.7,212.5z"/>
			<path class="st3" d="M370.8,217.8c0.1-0.4,0.6-0.6,1-0.5c0.4,0.1,0.7,0.5,0.6,0.9c-0.1,0.4-0.6,0.6-1,0.5
				C371,218.6,370.7,218.2,370.8,217.8z"/>
			<path class="st3" d="M371.1,213.1c0.1-0.5,0.7-0.8,1.2-0.6c0.5,0.1,0.8,0.6,0.7,1.1c-0.1,0.5-0.7,0.8-1.2,0.6
				C371.2,214,371,213.5,371.1,213.1z"/>
			<path class="st3" d="M373.2,216.9c0.1-0.2,0.3-0.4,0.6-0.3c0.3,0.1,0.4,0.3,0.3,0.6c-0.1,0.2-0.3,0.4-0.6,0.3
				C373.3,217.4,373.1,217.1,373.2,216.9z"/>
			<path class="st3" d="M372.9,215.2c0-0.1,0-0.3,0.1-0.3c0.1,0,0.3,0,0.3,0.1c0,0.1,0,0.3-0.1,0.3
				C373.1,215.4,373,215.3,372.9,215.2z"/>
			<path class="st3" d="M374.8,203.4c-0.1,0.1-0.3,0.1-0.3-0.1c-0.1-0.1-0.1-0.3,0.1-0.3c0.1-0.1,0.3-0.1,0.3,0.1
				C375,203.2,374.9,203.4,374.8,203.4z"/>
			<path class="st3" d="M374.3,205.2c-0.2,0.2-0.5,0.1-0.7-0.1c-0.2-0.2-0.1-0.5,0.1-0.7c0.2-0.2,0.5-0.1,0.7,0.1
				C374.6,204.8,374.6,205,374.3,205.2z"/>
			<path class="st3" d="M376.6,207.2c-0.2-0.2-0.2-0.5,0-0.7c0.2-0.2,0.5-0.2,0.7,0c0.2,0.2,0.2,0.5,0,0.7
				C377.1,207.4,376.8,207.4,376.6,207.2z"/>
			<path class="st3" d="M373.3,201.6c-0.3-0.3-0.3-0.7,0-1s0.7-0.2,1,0c0.3,0.3,0.3,0.7,0,1C374,201.9,373.6,201.9,373.3,201.6z"/>
			<path class="st3" d="M375.1,210.8c0.1-0.1,0.3-0.1,0.4,0c0.1,0.1,0.1,0.3,0.1,0.4c-0.1,0.1-0.3,0.1-0.4,0
				C375,211.1,375,210.9,375.1,210.8z"/>
			<path class="st3" d="M377.7,209.3c0,0.5-0.5,0.9-1,0.8c-0.5,0-0.9-0.5-0.9-1c0-0.5,0.5-0.9,1-0.8
				C377.3,208.4,377.7,208.8,377.7,209.3z"/>
			<ellipse transform="matrix(0.991 -0.1337 0.1337 0.991 -23.2453 51.963)" class="st3" cx="375.1" cy="199" rx="0.3" ry="0.3"/>
			<path class="st3" d="M376.5,200.6c0.1,0.2,0,0.5-0.3,0.5c-0.2,0.1-0.5,0-0.6-0.3s0-0.5,0.3-0.5
				C376.2,200.2,376.4,200.3,376.5,200.6z"/>
			<path class="st3" d="M375.9,203.2c-0.4-0.3-0.5-0.9-0.2-1.3c0.3-0.4,0.9-0.5,1.3-0.2c0.4,0.3,0.5,0.9,0.2,1.3
				C376.9,203.5,376.3,203.5,375.9,203.2z"/>
			
				<ellipse transform="matrix(7.461160e-002 -0.9972 0.9972 7.461160e-002 144.2812 564.8614)" class="st3" cx="376.5" cy="204.7" rx="0.2" ry="0.2"/>
			<path class="st3" d="M375.1,206.7c0.1,0.1,0,0.3-0.1,0.3c-0.1,0.1-0.3,0-0.3-0.1c-0.1-0.1,0-0.3,0.1-0.3
				C374.9,206.6,375,206.6,375.1,206.7z"/>
			<path class="st3" d="M368.9,222.5c-0.3,0-0.5-0.1-0.5-0.4c0-0.3,0.2-0.5,0.4-0.5c0.3,0,0.5,0.1,0.5,0.4
				C369.3,222.2,369.1,222.5,368.9,222.5z"/>
			<path class="st3" d="M367.6,223.3c-0.1,0.1-0.3,0.1-0.3,0c-0.1-0.1-0.1-0.2,0-0.3c0.1-0.1,0.3-0.1,0.3,0
				C367.7,223.1,367.7,223.3,367.6,223.3z"/>
			
				<ellipse id="XMLID_64_" transform="matrix(0.9974 -7.189881e-002 7.189881e-002 0.9974 -14.0328 26.0522)" cx="354.9" cy="207.9" rx="1.2" ry="1.2"/>
			
				<ellipse id="XMLID_63_" transform="matrix(0.9974 -7.189066e-002 7.189066e-002 0.9974 -13.838 26.6848)" cx="363.8" cy="205.6" rx="0.9" ry="0.9"/>
			
				<ellipse id="XMLID_62_" transform="matrix(0.9974 -7.190190e-002 7.190190e-002 0.9974 -14.7207 26.257)" cx="357.3" cy="217.6" rx="1.9" ry="1.9"/>
			
				<ellipse id="XMLID_61_" transform="matrix(0.9974 -7.188065e-002 7.188065e-002 0.9974 -13.3371 26.8651)" cx="366.6" cy="198.7" rx="1.1" ry="1.1"/>
			<path class="st3" d="M361.6,193.1c-0.2-0.4,0-0.8,0.5-1c0.4-0.2,0.9,0,1,0.4c0.2,0.4,0,0.8-0.5,1
				C362.2,193.6,361.7,193.5,361.6,193.1z"/>
		</g>
		<g>
			<g>
				<path class="st17" d="M381.3,234.1c-1.7,1.7-4.6,1.7-6.3,0l-6-6c-1.7-1.7-1.7-4.6,0-6.3l0,0c1.7-1.7,4.6-1.7,6.3,0l6,6
					C383,229.6,383,232.4,381.3,234.1L381.3,234.1z"/>
				<path class="st18" d="M369,228.1l6,6c1.7,1.7,4.6,1.7,6.3,0L369,221.8C367.3,223.6,367.3,226.4,369,228.1z"/>
				<g>
					<path class="st17" d="M373,187c10.3,10.3,10.3,27.1,0,37.5c-10.3,10.3-27.1,10.3-37.5,0c-10.3-10.3-10.3-27.1,0-37.5
						C345.9,176.6,362.7,176.6,373,187z"/>
				</g>
				<g>
					<path class="st19" d="M371.8,188c9.7,9.7,9.7,25.4,0,35.1c-9.7,9.7-25.4,9.7-35.1,0c-9.7-9.7-9.7-25.4,0-35.1
						C346.4,178.3,362.1,178.3,371.8,188z"/>
				</g>
				<g>
					<path class="st20" d="M370.4,189.4c8.9,8.9,8.9,23.4,0,32.3c-8.9,8.9-23.4,8.9-32.3,0c-8.9-8.9-8.9-23.4,0-32.3
						C347,180.5,361.5,180.5,370.4,189.4z"/>
				</g>
				<g>
					<path class="st21" d="M333.3,205.6c0-11.6,9.4-20.9,20.9-20.9c11.6,0,20.9,9.4,20.9,20.9c0,11.6-9.4,20.9-20.9,20.9
						C342.7,226.5,333.3,217.1,333.3,205.6z"/>
				</g>
				<path class="st22" d="M337,207.5c0-11.6,9.4-20.9,20.9-20.9c2.7,0,5.2,0.5,7.6,1.4c-3.3-2.1-7.1-3.3-11.3-3.3
					c-11.6,0-20.9,9.4-20.9,20.9c0,8.9,5.5,16.5,13.3,19.5C340.9,221.4,337,214.9,337,207.5z"/>
				<path class="st20" d="M366.5,190c-1.5-0.4,2.2,3.4,2.8,5.6c0.5,2.1-2.7,5-1.1,8.1c1.6,3.2-3.7,3.7-6.5,8.3
					c-2.8,4.5,3,8.8-1.3,11.1c-4.3,2.3-7.5,2.5-6.4,2.7c1,0.2,8.6,0,14.6-6.5c6-6.5,6-14,5.3-17.7C373.2,198,369.3,190.8,366.5,190z
					"/>
				<g>
					<path class="st22" d="M363.4,217.6c0.4-0.5,1.1-0.6,1.6-0.2c0.5,0.4,0.6,1.1,0.2,1.6c-0.4,0.5-1.1,0.6-1.6,0.2
						C363.1,218.8,363,218.1,363.4,217.6z"/>
					<path class="st22" d="M367.7,207.6c0.5-0.6,1.3-0.7,1.9-0.3s0.7,1.2,0.3,1.8c-0.5,0.6-1.3,0.7-1.9,0.3
						C367.4,208.9,367.3,208.1,367.7,207.6z"/>
					<path class="st22" d="M362.5,213.8c0.3-0.3,0.8-0.4,1.1-0.1c0.4,0.3,0.4,0.7,0.2,1.1c-0.3,0.3-0.8,0.4-1.1,0.1
						C362.3,214.6,362.2,214.1,362.5,213.8z"/>
					<path class="st22" d="M364.6,215.5c0.2-0.2,0.5-0.2,0.7-0.1c0.2,0.2,0.3,0.4,0.1,0.6c-0.2,0.2-0.5,0.2-0.7,0.1
						C364.5,216,364.5,215.7,364.6,215.5z"/>
					<path class="st22" d="M362.2,216c0.1-0.1,0.3-0.2,0.5-0.1c0.2,0.1,0.2,0.3,0.1,0.5c-0.1,0.1-0.3,0.2-0.5,0.1
						C362.1,216.3,362.1,216.1,362.2,216z"/>
					
						<ellipse transform="matrix(6.389835e-002 -0.998 0.998 6.389835e-002 132.9851 562.1684)" class="st22" cx="366.1" cy="210.2" rx="0.8" ry="0.8"/>
					
						<ellipse transform="matrix(6.385460e-002 -0.998 0.998 6.385460e-002 129.0916 561.5281)" class="st22" cx="363.8" cy="212" rx="0.5" ry="0.5"/>
					<path class="st22" d="M365.9,213.2c0.1,0.1,0,0.3-0.1,0.3c-0.1,0.1-0.3,0-0.3-0.1s0-0.3,0.1-0.3
						C365.7,213.1,365.9,213.1,365.9,213.2z"/>
					<path class="st22" d="M367.4,214.2c0.1,0.2,0.1,0.5-0.1,0.6c-0.2,0.1-0.5,0.1-0.7-0.1c-0.1-0.2-0.1-0.5,0.1-0.6
						C366.9,214,367.2,214,367.4,214.2z"/>
					<path class="st22" d="M371.8,213.3c-0.3,0.3-0.8,0.2-1.1-0.1c-0.3-0.3-0.3-0.8,0.1-1.1c0.3-0.3,0.8-0.3,1.1,0.1
						C372.2,212.5,372.2,213,371.8,213.3z"/>
					<path class="st22" d="M369.5,211.4c-0.1,0.1-0.3,0.1-0.4,0c-0.1-0.1-0.1-0.3,0-0.4c0.1-0.1,0.3-0.1,0.4,0
						C369.6,211.1,369.6,211.3,369.5,211.4z"/>
					<path class="st22" d="M366.6,216.7c0.1-0.4,0.6-0.6,1-0.5c0.4,0.1,0.7,0.5,0.6,0.9c-0.1,0.4-0.6,0.6-1,0.5
						C366.7,217.5,366.5,217.1,366.6,216.7z"/>
					<path class="st22" d="M366.8,212c0.1-0.5,0.7-0.8,1.2-0.6c0.5,0.1,0.8,0.6,0.7,1.1c-0.1,0.5-0.7,0.8-1.2,0.6
						C367,213,366.7,212.5,366.8,212z"/>
					<path class="st22" d="M368.9,215.8c0.1-0.2,0.3-0.4,0.6-0.3s0.4,0.3,0.3,0.6c-0.1,0.2-0.3,0.4-0.6,0.3
						C369,216.3,368.9,216,368.9,215.8z"/>
					<path class="st22" d="M368.7,214.1c0-0.1,0-0.3,0.1-0.3c0.1,0,0.3,0,0.3,0.1s0,0.3-0.1,0.3
						C368.9,214.3,368.7,214.2,368.7,214.1z"/>
					<path class="st22" d="M370.6,202.4c-0.1,0.1-0.3,0.1-0.3-0.1c-0.1-0.1-0.1-0.3,0.1-0.3c0.1-0.1,0.3-0.1,0.3,0.1
						C370.7,202.1,370.7,202.3,370.6,202.4z"/>
					<path class="st22" d="M370.1,204.1c-0.2,0.2-0.5,0.1-0.7-0.1c-0.2-0.2-0.1-0.5,0.1-0.7c0.2-0.2,0.5-0.1,0.7,0.1
						C370.4,203.7,370.3,204,370.1,204.1z"/>
					<path class="st22" d="M372.4,206.1c-0.2-0.2-0.2-0.5,0-0.7c0.2-0.2,0.5-0.2,0.7,0c0.2,0.2,0.2,0.5,0,0.7
						C372.9,206.3,372.6,206.3,372.4,206.1z"/>
					<path class="st22" d="M369.1,200.5c-0.3-0.3-0.3-0.7,0-1s0.7-0.2,1,0c0.3,0.3,0.3,0.7,0,1S369.3,200.8,369.1,200.5z"/>
					<path class="st22" d="M370.8,209.7c0.1-0.1,0.3-0.1,0.4,0c0.1,0.1,0.1,0.3,0.1,0.4c-0.1,0.1-0.3,0.1-0.4,0
						C370.8,210,370.7,209.8,370.8,209.7z"/>
					<path class="st22" d="M373.4,208.2c0,0.5-0.5,0.9-1,0.8c-0.5,0-0.9-0.5-0.9-1c0-0.5,0.5-0.9,1-0.8
						C373.1,207.3,373.5,207.8,373.4,208.2z"/>
					
						<ellipse transform="matrix(0.991 -0.1337 0.1337 0.991 -23.1409 51.3838)" class="st22" cx="370.9" cy="197.9" rx="0.3" ry="0.3"/>
					<path class="st22" d="M372.3,199.5c0.1,0.2,0,0.5-0.3,0.5c-0.2,0.1-0.5,0-0.6-0.3c-0.1-0.2,0-0.5,0.3-0.5
						C371.9,199.2,372.2,199.3,372.3,199.5z"/>
					<path class="st22" d="M371.7,202.2c-0.4-0.3-0.5-0.9-0.2-1.3c0.3-0.4,0.9-0.5,1.3-0.1c0.4,0.3,0.5,0.9,0.2,1.3
						C372.7,202.4,372.1,202.5,371.7,202.2z"/>
					
						<ellipse transform="matrix(7.459635e-002 -0.9972 0.9972 7.459635e-002 141.4141 559.645)" class="st22" cx="372.2" cy="203.6" rx="0.2" ry="0.2"/>
					<path class="st22" d="M370.8,205.7c0.1,0.1,0,0.3-0.1,0.3c-0.1,0.1-0.3,0-0.3-0.1c-0.1-0.1,0-0.3,0.1-0.3
						S370.8,205.5,370.8,205.7z"/>
					<path class="st22" d="M364.6,221.4c-0.3,0-0.5-0.1-0.5-0.4c0-0.3,0.2-0.5,0.4-0.5c0.3,0,0.5,0.1,0.5,0.4
						C365.1,221.2,364.9,221.4,364.6,221.4z"/>
					<path class="st22" d="M363.4,222.3c-0.1,0.1-0.3,0.1-0.3,0c-0.1-0.1-0.1-0.2,0-0.3c0.1-0.1,0.3-0.1,0.3,0
						C363.5,222,363.5,222.2,363.4,222.3z"/>
				</g>
				<g>
					
						<ellipse id="XMLID_52_" transform="matrix(0.9974 -7.189579e-002 7.189579e-002 0.9974 -13.9669 25.7428)" class="st23" cx="350.6" cy="206.9" rx="1.2" ry="1.2"/>
					
						<ellipse id="XMLID_51_" transform="matrix(0.9974 -7.194662e-002 7.194662e-002 0.9974 -13.7826 26.3976)" class="st23" cx="359.5" cy="204.5" rx="0.9" ry="0.9"/>
					
						<ellipse id="XMLID_50_" transform="matrix(0.9974 -7.190381e-002 7.190381e-002 0.9974 -14.6557 25.9495)" class="st23" cx="353.1" cy="216.5" rx="1.9" ry="1.9"/>
					
						<ellipse id="XMLID_49_" transform="matrix(0.9974 -7.188396e-002 7.188396e-002 0.9974 -13.2723 26.5581)" class="st23" cx="362.3" cy="197.7" rx="1.1" ry="1.1"/>
					<path class="st22" d="M357.3,192c-0.2-0.4,0-0.8,0.5-1c0.4-0.2,0.9,0,1,0.4c0.2,0.4,0,0.8-0.5,1S357.5,192.4,357.3,192z"/>
				</g>
			</g>
		</g>
	</g>
	<g>
		<g class="st2">
			<path class="st3" d="M397,149.6c6.6,4.5,8.1,9.7,11.2,14.8c2.1,3.4,4.4,3.4,4.4,3.4s2.5,0.7,4.4,0c1.4-0.5,1.3-2,1.3-2
				s-6.5-12.3-16.4-19.4c-10.6-7.6-72.8-9.7-72.8-9.7l-2,5.8C327.1,142.5,389.6,144.4,397,149.6z"/>
			<path class="st3" d="M414.3,142.5l-2-5.8c0,0-62.2,2.2-72.8,9.7c-9.9,7.1-16.4,19.4-16.4,19.4s-0.1,1.5,1.3,2
				c1.9,0.7,4.4,0,4.4,0s2.3,0,4.4-3.4c3.1-5.1,4.6-10.3,11.2-14.8C351.8,144.4,414.3,142.5,414.3,142.5z"/>
			<path d="M411.8,145.8c-0.9,8.6-2.8,14.4-15.9,14.4c-10.6,0-16.9-3.7-19.1-18.1c-0.1,0.5-0.1,1-0.1,1.5
				c2.1,14.7,8.4,18.4,19.1,18.5c13.1,0,15-5.8,15.9-14.4c0.2-1.4,0.2-2.7,0.2-3.9C412,144.5,411.9,145.1,411.8,145.8z"/>
			<path class="st3" d="M370.7,140.8c-4,0.2-5.7,8.3-4.6,8c0,0,2.5-3.8,4.6-3.8c2.2,0.1,4.6,3.8,4.6,3.8
				C376.4,149.2,374.7,141,370.7,140.8z"/>
			<path class="st3" d="M337.4,135.7c15.4-2.5,28.1,1.6,27.2,7.8c-2.3,14.6-8.6,18.1-19.3,18c-13-0.2-14.7-6-15.5-14.5
				C329.2,141.3,329.8,136.9,337.4,135.7z"/>
			<path class="st3" d="M411.6,146.9c-0.8,8.5-2.6,14.3-15.5,14.5c-10.6,0.2-16.9-3.4-19.3-18c-1-6.2,11.7-10.3,27.2-7.8
				C411.6,136.9,412.2,141.3,411.6,146.9z"/>
			<path d="M337.4,135.3c-6.8,1.1-8,4.7-7.8,9.5c0.2-3.9,1.8-6.8,7.8-7.7c14.1-2.3,25.9,1,27.1,6.3c0-0.1,0-0.2,0-0.3
				C365.6,136.9,352.8,132.8,337.4,135.3z"/>
			<path d="M404,137.1c5.9,1,7.6,3.8,7.8,7.7c0.2-4.8-1-8.5-7.8-9.5c-15.4-2.5-28.1,1.6-27.2,7.8c0,0.1,0,0.2,0,0.3
				C378,138.1,389.9,134.8,404,137.1z"/>
			<path class="st3" d="M414.7,136.4c-0.5-0.7-1.6-0.7-1.6-0.7s-3.4-0.8-7.8-1.4c-3-0.4-6.4-0.6-9.8-0.6c-7.1-0.1-13.3,1.6-13.3,1.6
				s-1.2,0.3-2.7,0.7c-1.6,0.4-3.5,1-5.4,1.3c-1.4,0.3-2.7,0.3-3.5,0.3v0c-0.9,0-2.1,0-3.5-0.3c-1.9-0.3-3.8-0.9-5.4-1.3
				c-1.4-0.4-2.7-0.7-2.7-0.7s-6.2-1.7-13.3-1.6c-3.4,0-6.8,0.2-9.8,0.6c-4.4,0.6-7.8,1.4-7.8,1.4s-1.1,0-1.6,0.7
				c-0.4,0.5-0.2,1.6-0.2,1.6l0.2,4.3c0,0-0.1,0.3,0.1,0.9c0.1,0.4,0.5,0.8,0.7,1.2c0.3,0.7,0.3,1.3,0.3,1.3s0.5,2.7,1.3,5.5
				c0.4,1.4,0.9,2.7,1.3,4c0.8,2.2,2,3.7,2,3.7s1.2,1.8,3.3,2.5c0.9,0.3,2,0.7,3,0.9c2.4,0.5,4.5,0.5,4.5,0.5s4.8,0.6,9.6-0.4
				c1.1-0.2,2.6-0.6,3.7-1.1c1.7-0.8,3.1-1.7,3.1-1.7s1.9-1.6,3.9-4.9c1.2-2,2.3-4.7,3.1-6.6c0.6-1.5,1.1-2.5,1.1-2.5s0.4-2.5,3-2.5
				v0c2.6,0,3,2.5,3,2.5s0.4,1,1.1,2.5c0.8,1.9,2,4.6,3.1,6.6c1.9,3.4,3.9,4.9,3.9,4.9s1.3,1,3.1,1.7c1.2,0.5,2.6,0.9,3.7,1.1
				c4.8,0.9,9.6,0.4,9.6,0.4s2.1,0,4.5-0.5c1-0.2,2.1-0.6,3-0.9c2.1-0.8,3.3-2.5,3.3-2.5s1.2-1.5,2-3.7c0.5-1.3,0.9-2.6,1.3-4
				c0.8-2.8,1.3-5.5,1.3-5.5s0-0.6,0.3-1.3c0.2-0.4,0.6-0.8,0.7-1.2c0.2-0.6,0.1-0.9,0.1-0.9l0.2-4.3
				C414.9,138,415.1,136.8,414.7,136.4z M364.1,143.6c-2.3,14.1-8.4,17.6-18.7,17.4c-12.6-0.2-14.3-5.8-15.1-14.1
				c-0.5-5.5,0.1-9.7,7.4-10.9C352.7,133.7,365.1,137.6,364.1,143.6z M411.1,147c-0.8,8.3-2.5,13.9-15.1,14.1
				c-10.3,0.2-16.4-3.3-18.7-17.4c-1-6,11.4-10,26.4-7.6C411,137.2,411.6,141.5,411.1,147z"/>
			<path class="st3" d="M370.7,137.6c-3.1,0.2-4.7,9.2-4.3,11c0.1-0.2,0.2-0.4,0.2-0.6c0.6-1.5,1.5-3.6,4.1-3.6v0
				c2.6,0,3.5,2,4.1,3.6c0.1,0.2,0.2,0.4,0.2,0.5C375.4,146.8,373.9,137.8,370.7,137.6z"/>
			<ellipse class="st3" cx="327.9" cy="139.3" rx="0.4" ry="1.1"/>
			<ellipse class="st3" cx="413.5" cy="139.3" rx="0.4" ry="1.1"/>
			<ellipse class="st3" cx="327.9" cy="138.9" rx="0.4" ry="1.1"/>
			<ellipse class="st3" cx="413.5" cy="138.9" rx="0.4" ry="1.1"/>
		</g>
		<g>
			<g>
				<g>
					<path class="st17" d="M394.9,147.4c6.6,4.5,8.1,9.7,11.2,14.8c2.1,3.4,4.4,3.4,4.4,3.4s2.5,0.7,4.4,0c1.4-0.5,1.3-2,1.3-2
						s-6.5-12.3-16.4-19.4c-10.6-7.6-72.8-9.7-72.8-9.7l-2,5.8C325,140.4,387.5,142.3,394.9,147.4z"/>
				</g>
				<g>
					<path class="st17" d="M412.2,140.4l-2-5.8c0,0-62.2,2.2-72.8,9.7c-9.9,7.1-16.4,19.4-16.4,19.4s-0.1,1.5,1.3,2
						c1.9,0.7,4.4,0,4.4,0s2.3,0,4.4-3.4c3.1-5.1,4.6-10.3,11.2-14.8C349.7,142.3,412.2,140.4,412.2,140.4z"/>
				</g>
				<path class="st5" d="M409.7,143.7c-0.9,8.6-2.8,14.4-15.9,14.4c-10.6,0-16.9-3.7-19.1-18.1c-0.1,0.5-0.1,1-0.1,1.5
					c2.1,14.7,8.4,18.4,19.1,18.5c13.1,0,15-5.8,15.9-14.4c0.2-1.4,0.2-2.7,0.2-3.9C409.8,142.3,409.8,143,409.7,143.7z"/>
				<path class="st17" d="M368.6,138.7c-4,0.2-5.7,8.3-4.6,8c0,0,2.5-3.8,4.6-3.8c2.2,0.1,4.6,3.8,4.6,3.8
					C374.3,147,372.6,138.9,368.6,138.7z"/>
				<g class="st11">
					<path class="st24" d="M335.3,133.5c15.4-2.5,28.1,1.6,27.2,7.8c-2.3,14.6-8.6,18.1-19.3,18c-13-0.2-14.7-6-15.5-14.5
						C327.1,139.1,327.7,134.8,335.3,133.5z"/>
				</g>
				<g class="st11">
					<path class="st24" d="M409.5,144.8c-0.8,8.5-2.6,14.3-15.5,14.5c-10.6,0.2-16.9-3.4-19.3-18c-1-6.2,11.7-10.3,27.2-7.8
						C409.5,134.8,410,139.1,409.5,144.8z"/>
				</g>
				<path class="st5" d="M335.3,133.2c-6.8,1.1-8,4.7-7.8,9.5c0.2-3.9,1.8-6.8,7.8-7.7c14.1-2.3,25.9,1,27.1,6.3c0-0.1,0-0.2,0-0.3
					C363.4,134.8,350.7,130.7,335.3,133.2z"/>
				<path class="st5" d="M401.9,135c5.9,1,7.6,3.8,7.8,7.7c0.2-4.8-1-8.5-7.8-9.5c-15.4-2.5-28.1,1.6-27.2,7.8c0,0.1,0,0.2,0,0.3
					C375.9,136,387.8,132.7,401.9,135z"/>
				<path class="st18" d="M412.6,134.2c-0.5-0.7-1.6-0.7-1.6-0.7s-3.4-0.8-7.8-1.4c-3-0.4-6.4-0.6-9.8-0.6
					c-7.1-0.1-13.3,1.6-13.3,1.6s-1.2,0.3-2.7,0.7c-1.6,0.4-3.5,1-5.4,1.3c-1.4,0.3-2.7,0.3-3.5,0.3v0c-0.9,0-2.1,0-3.5-0.3
					c-1.9-0.3-3.8-0.9-5.4-1.3c-1.4-0.4-2.7-0.7-2.7-0.7s-6.2-1.7-13.3-1.6c-3.4,0-6.8,0.2-9.8,0.6c-4.4,0.6-7.8,1.4-7.8,1.4
					s-1.1,0-1.6,0.7c-0.4,0.5-0.2,1.6-0.2,1.6l0.2,4.3c0,0-0.1,0.3,0.1,0.9c0.1,0.4,0.5,0.8,0.7,1.2c0.3,0.7,0.3,1.3,0.3,1.3
					s0.5,2.7,1.3,5.5c0.4,1.4,0.9,2.7,1.3,4c0.8,2.2,2,3.7,2,3.7s1.2,1.8,3.3,2.5c0.9,0.3,2,0.7,3,0.9c2.4,0.5,4.5,0.5,4.5,0.5
					s4.8,0.6,9.6-0.4c1.1-0.2,2.6-0.6,3.7-1.1c1.7-0.8,3.1-1.7,3.1-1.7s1.9-1.6,3.9-4.9c1.2-2,2.3-4.7,3.1-6.6
					c0.6-1.5,1.1-2.5,1.1-2.5s0.4-2.5,3-2.5v0c2.6,0,3,2.5,3,2.5s0.4,1,1.1,2.5c0.8,1.9,2,4.6,3.1,6.6c1.9,3.4,3.9,4.9,3.9,4.9
					s1.3,1,3.1,1.7c1.2,0.5,2.6,0.9,3.7,1.1c4.8,0.9,9.6,0.4,9.6,0.4s2.1,0,4.5-0.5c1-0.2,2.1-0.6,3-0.9c2.1-0.8,3.3-2.5,3.3-2.5
					s1.2-1.5,2-3.7c0.5-1.3,0.9-2.6,1.3-4c0.8-2.8,1.3-5.5,1.3-5.5s0-0.6,0.3-1.3c0.2-0.4,0.6-0.8,0.7-1.2c0.2-0.6,0.1-0.9,0.1-0.9
					l0.2-4.3C412.7,135.9,412.9,134.7,412.6,134.2z M362,141.5c-2.3,14.1-8.4,17.6-18.7,17.4c-12.6-0.2-14.3-5.8-15.1-14.1
					c-0.5-5.5,0.1-9.7,7.4-10.9C350.6,131.5,362.9,135.5,362,141.5z M409,144.9c-0.8,8.3-2.5,13.9-15.1,14.1
					c-10.3,0.2-16.4-3.3-18.7-17.4c-1-6,11.4-10,26.4-7.6C408.9,135.1,409.5,139.4,409,144.9z"/>
				<path class="st25" d="M368.6,135.4c-3.1,0.2-4.7,9.2-4.3,11c0.1-0.2,0.2-0.4,0.2-0.6c0.6-1.5,1.5-3.6,4.1-3.6v0
					c2.6,0,3.5,2,4.1,3.6c0.1,0.2,0.2,0.4,0.2,0.5C373.3,144.7,371.7,135.6,368.6,135.4z"/>
				<ellipse class="st17" cx="325.8" cy="137.2" rx="0.4" ry="1.1"/>
				<ellipse class="st17" cx="411.4" cy="137.2" rx="0.4" ry="1.1"/>
				<ellipse class="st26" cx="325.8" cy="136.7" rx="0.4" ry="1.1"/>
				<ellipse class="st26" cx="411.4" cy="136.7" rx="0.4" ry="1.1"/>
			</g>
		</g>
	</g>
	<g class="st0">
		<g class="st27">
			<path class="st3" d="M305.4,420.5v1.4c0,1.1-0.9,2-2,2l0,0c-1.1,0-2-0.9-2-2v-1.4H305.4z"/>
			<path class="st3" d="M297.8,410.9l1.7,5.7l8-0.1l1.6-5.5L297.8,410.9z"/>
			<path class="st3" d="M299.5,416.5l1.3,4.2l5.4,0.1l1.3-4.3L299.5,416.5z"/>
			<path class="st3" d="M299.2,302.2l1.3-2.2h5.9l1.3,2.2L299.2,302.2z"/>
			<path class="st3" d="M297.8,411l-0.5-1.1c0,0,0.8-6.6,0.9-11.7c0.5-24,1-95.9,1-95.9l8.6-0.1c0,0,0.2,39.5,0.5,67.4
				c0.1,10.8,0.2,21.1,0.4,28.5c0.1,7.2,0.9,11.7,0.9,11.7l-0.4,1.3L297.8,411z"/>
			<path class="st3" d="M297.8,410.9l5.6,0V302.1l-4.2,0c0,0-0.6,71.9-1,95.9c-0.1,5.2-0.9,11.7-0.9,11.7L297.8,410.9z"/>
			<path class="st3" d="M301.5,385.6c0-1.1,0.9-2,2-2l0,0c1.1,0,2,0.9,2,2v13.8c0,1.1-0.9,2-2,2l0,0c-1.1,0-2-0.9-2-2V385.6z"/>
			<path class="st3" d="M301.5,385.6v13.8c0,1.1,0.9,2,2,2v-17.8C302.4,383.6,301.5,384.5,301.5,385.6z"/>
			<rect x="296.2" y="341.2" class="st3" width="12.3" height="34.6"/>
			<rect x="297.7" y="341.2" class="st3" width="12.5" height="34.6"/>
			<rect x="303.5" y="341.2" class="st3" width="6.8" height="34.6"/>
			<path class="st3" d="M99.9,289.1h190.6c3.3,0,5.9,2.6,5.9,5.9v128.4c0,3.3-2.6,5.9-5.9,5.9H99.9c-3.3,0-5.9-2.6-5.9-5.9V295
				C94,291.7,96.7,289.1,99.9,289.1z"/>
			<path class="st3" d="M101.8,290.9h186.8c4.4,0,5.8,2.1,5.8,5.8v125.1c0,3.6-2.2,5.8-5.8,5.8H101.8c-3.2,0-5.8-0.9-5.8-5.8V296.6
				C96,292.7,97.4,290.9,101.8,290.9z"/>
			<path class="st3" d="M109.2,298.2h171.1c3.3,0,5.9,2.6,5.9,5.9v110.1c0,3.3-2.6,5.9-5.9,5.9H109.2c-3.3,0-5.9-2.6-5.9-5.9V304.1
				C103.3,300.9,106,298.2,109.2,298.2z"/>
			<path class="st3" d="M132.5,298.2h-23.2c-3.3,0-5.9,2.6-5.9,5.9v110.1c0,3.3,2.6,5.9,5.9,5.9h23.2V298.2z"/>
			<rect x="103.3" y="337.9" class="st3" width="29.1" height="1.9"/>
			<rect x="103.3" y="338.9" class="st3" width="29.1" height="1"/>
			<rect x="103.3" y="378.5" class="st3" width="29.1" height="1.9"/>
			<rect x="103.3" y="379.5" class="st3" width="29.1" height="1"/>
			<rect x="131.5" y="298.2" class="st3" width="1.9" height="121.9"/>
			<rect x="131.5" y="298.2" class="st3" width="1" height="121.9"/>
			<circle class="st3" cx="117.9" cy="359.7" r="7.9"/>
			<path class="st3" d="M117.9,361.2c2.7,0,5.2-0.8,7.1-2.2c-0.4-3.5-3.4-6.3-7.1-6.3c-3.6,0-6.7,2.7-7.1,6.3
				C112.7,360.3,115.2,361.2,117.9,361.2z"/>
			<polygon class="st3" points="133.4,419.1 168.6,419.1 256.2,299.3 133.4,299.3 			"/>
		</g>
		<g class="st28">
			<g>
				<g>
					<path class="st17" d="M301.2,416.2v1.4c0,1.1-0.9,2-2,2l0,0c-1.1,0-2-0.9-2-2v-1.4H301.2z"/>
					<path class="st29" d="M293.6,406.7l1.7,5.7l8-0.1l1.6-5.5L293.6,406.7z"/>
					<path class="st18" d="M295.3,412.3l1.3,4.2l5.4,0.1l1.3-4.3L295.3,412.3z"/>
					<path class="st17" d="M295,297.9l1.3-2.2h5.9l1.3,2.2L295,297.9z"/>
					<path class="st18" d="M293.6,406.7l-0.5-1.1c0,0,0.8-6.6,0.9-11.7c0.5-24,1-95.9,1-95.9l8.6-0.1c0,0,0.2,39.5,0.5,67.4
						c0.1,10.8,0.2,21.1,0.4,28.5c0.1,7.2,0.9,11.7,0.9,11.7l-0.4,1.3L293.6,406.7z"/>
					<path class="st17" d="M293.6,406.7l5.6,0V297.9l-4.2,0c0,0-0.6,71.9-1,95.9c-0.1,5.2-0.9,11.7-0.9,11.7L293.6,406.7z"/>
					<path class="st29" d="M297.2,381.4c0-1.1,0.9-2,2-2l0,0c1.1,0,2,0.9,2,2v13.8c0,1.1-0.9,2-2,2l0,0c-1.1,0-2-0.9-2-2V381.4z"/>
					<path class="st18" d="M297.2,381.4v13.8c0,1.1,0.9,2,2,2v-17.8C298.1,379.4,297.2,380.3,297.2,381.4z"/>
				</g>
				<rect x="292" y="336.9" class="st30" width="12.3" height="34.6"/>
				<rect x="293.5" y="336.9" class="st26" width="12.5" height="34.6"/>
				<rect x="299.2" y="336.9" class="st30" width="6.8" height="34.6"/>
				<path class="st17" d="M95.7,284.8h190.6c3.3,0,5.9,2.6,5.9,5.9v128.4c0,3.3-2.6,5.9-5.9,5.9H95.7c-3.3,0-5.9-2.6-5.9-5.9V290.7
					C89.8,287.5,92.4,284.8,95.7,284.8z"/>
				<path class="st18" d="M97.6,286.6h186.8c4.4,0,5.8,2.1,5.8,5.8v125.1c0,3.6-2.2,5.8-5.8,5.8H97.6c-3.2,0-5.8-0.9-5.8-5.8V292.4
					C91.8,288.4,93.2,286.6,97.6,286.6z"/>
				<path class="st29" d="M105,294h171.1c3.3,0,5.9,2.6,5.9,5.9V410c0,3.3-2.6,5.9-5.9,5.9H105c-3.3,0-5.9-2.6-5.9-5.9V299.9
					C99.1,296.6,101.7,294,105,294z"/>
				<path class="st29" d="M128.2,294H105c-3.3,0-5.9,2.6-5.9,5.9V410c0,3.3,2.6,5.9,5.9,5.9h23.2V294z"/>
				<g>
					<rect x="99.1" y="333.6" class="st31" width="29.1" height="1.9"/>
					<rect x="99.1" y="334.6" class="st17" width="29.1" height="1"/>
				</g>
				<g>
					<rect x="99.1" y="374.3" class="st31" width="29.1" height="1.9"/>
					<rect x="99.1" y="375.3" class="st17" width="29.1" height="1"/>
				</g>
				<g>
					<rect x="127.3" y="294" class="st31" width="1.9" height="121.9"/>
					<rect x="127.3" y="294" class="st17" width="1" height="121.9"/>
				</g>
				<circle class="st18" cx="113.7" cy="355.4" r="7.9"/>
				<path class="st32" d="M113.7,356.9c2.7,0,5.2-0.8,7.1-2.2c-0.4-3.5-3.4-6.3-7.1-6.3c-3.6,0-6.7,2.7-7.1,6.3
					C108.4,356.1,110.9,356.9,113.7,356.9z"/>
				<polygon class="st33" points="129.2,414.8 164.4,414.8 251.9,295 129.2,295 				"/>
			</g>
		</g>
	</g>
	<g class="st0">
		<g class="st28">
			<g class="st2">
				<rect x="423.1" y="377.4" width="2.8" height="5.5"/>
				<rect x="423.1" y="380.2" width="2.8" height="2.8"/>
				<path d="M432.5,380.8v-1.1c0-1.1-0.9-1.9-1.9-1.9h-4.8v5l4.8,0C431.7,382.7,432.5,381.8,432.5,380.8z"/>
				<path d="M334,380.5c0.2,0,0.3-0.1,0.3-0.3l0,0c0-0.2-0.1-0.3-0.3-0.3h-2.2c-0.2,0-0.3,0.1-0.3,0.3l0,0c0,0.2,0.1,0.3,0.3,0.3
					H334z"/>
				<path d="M331.5,380.2h2.8c0,0.2-0.1,0.3-0.3,0.3h-2.2C331.7,380.5,331.5,380.4,331.5,380.2z"/>
				<rect x="340.3" y="377.4" width="82.7" height="5.5"/>
				<rect x="340.3" y="380.2" width="82.7" height="2.8"/>
				<rect x="340.3" y="378.2" width="82.7" height="0.6"/>
				<polygon points="340.3,380.2 340.3,382.9 332.9,380.6 332.9,380.2 332.9,379.8 340.3,377.4 				"/>
				<polygon points="340.3,380.2 332.9,380.2 332.9,379.8 340.3,377.4 				"/>
			</g>
			<g>
				<g>
					<rect x="420.9" y="374.2" class="st10" width="2.8" height="5.5"/>
					<rect x="420.9" y="377" class="st15" width="2.8" height="2.8"/>
					<path class="st6" d="M430.4,377.6v-1.1c0-1.1-0.9-1.9-1.9-1.9l-4.8,0v5h4.8C429.6,379.5,430.4,378.7,430.4,377.6z"/>
					<path class="st34" d="M331.9,377.3c0.2,0,0.3-0.1,0.3-0.3l0,0c0-0.2-0.1-0.3-0.3-0.3h-2.2c-0.2,0-0.3,0.1-0.3,0.3l0,0
						c0,0.2,0.1,0.3,0.3,0.3H331.9z"/>
					<path class="st35" d="M329.4,377h2.8c0,0.2-0.1,0.3-0.3,0.3h-2.2C329.5,377.3,329.4,377.2,329.4,377z"/>
					<rect x="338.2" y="374.2" class="st36" width="82.7" height="5.5"/>
					<rect x="338.2" y="377" class="st23" width="82.7" height="2.8"/>
					<rect x="338.2" y="375" class="st23" width="82.7" height="0.6"/>
					<polygon class="st37" points="338.2,377 338.2,379.8 330.8,377.4 330.8,377 330.8,376.6 338.2,374.2 					"/>
					<polygon class="st38" points="338.2,377 330.8,377 330.8,376.6 338.2,374.2 					"/>
				</g>
			</g>
		</g>
		<g class="st28">
			<g class="st2">
				<path d="M340.9,368.3V226h92c1.9,0,3.4,1.5,3.4,3.4v135.5c0,1.9-1.5,3.4-3.4,3.4H340.9z"/>
				<rect x="347.6" y="229.1" width="85.5" height="135.9"/>
				<path d="M433.4,345l-0.1-10l-0.2-10l-0.2,10l-0.1,10c0,6.6-2.2,10.7-2.2,17.3c-5,0-7.9,2.4-13,2.5c-5.2,0-10.3,0.2-15.5,0.3
					c5.2,0.1,10.3,0.2,15.5,0.3c5.2,0.1,10.3,0.1,15.5,0.1l0.4,0l0-0.4C433.5,358.4,433.4,351.7,433.4,345z"/>
				<rect x="413.2" y="267.5" width="0.3" height="61.6"/>
				<polygon points="354.6,309.7 354.5,309.6 398,266 398.2,266.2 				"/>
				<polygon points="377.5,332.6 377.3,332.4 420.9,288.8 421,289 				"/>
				<rect x="395" y="255.1" transform="matrix(0.7071 -0.7071 0.7071 0.7071 -91.1765 365.1424)" width="0.3" height="75.1"/>
				<rect x="386.3" y="263.8" transform="matrix(0.7071 -0.7071 0.7071 0.7071 -99.9295 361.5164)" width="0.3" height="75.1"/>
				<rect x="408.9" y="254.1" transform="matrix(0.7071 -0.7071 0.7071 0.7071 -77.3154 370.8819)" width="0.2" height="49.3"/>
				<rect x="372.2" y="290.8" transform="matrix(0.7071 -0.7071 0.7071 0.7071 -114.0095 355.687)" width="0.2" height="49.3"/>
				<rect x="381" y="267.5" width="0.3" height="61.6"/>
				<rect x="367.1" y="267.5" width="0.3" height="61.6"/>
				<rect x="399.4" y="267.5" width="0.3" height="61.6"/>
				<rect x="354.2" y="305.8" width="66.9" height="0.3"/>
				<rect x="354.2" y="287.4" width="66.9" height="0.3"/>
				<rect x="354.2" y="273.5" width="66.9" height="0.3"/>
				<rect x="354.2" y="319.7" width="66.9" height="0.3"/>
				<path d="M397.2,306.2c-4.2,0-8.4-1.6-11.6-4.8c-3.1-3.1-4.8-7.2-4.8-11.6c0-4.4,1.7-8.5,4.8-11.6c6.4-6.4,16.8-6.4,23.2,0
					c3.1,3.1,4.8,7.2,4.8,11.6c0,4.4-1.7,8.5-4.8,11.6C405.6,304.6,401.4,306.2,397.2,306.2z M397.2,273.9c-4.1,0-8.1,1.5-11.2,4.6
					c-3,3-4.7,7-4.7,11.2S383,298,386,301c6.2,6.2,16.3,6.2,22.5,0l0,0c3-3,4.7-7,4.7-11.2s-1.7-8.2-4.7-11.2
					C405.4,275.5,401.3,273.9,397.2,273.9z"/>
				<path d="M383.4,320.1c-4.2,0-8.4-1.6-11.6-4.8c-3.1-3.1-4.8-7.2-4.8-11.6c0-4.4,1.7-8.5,4.8-11.6c6.4-6.4,16.8-6.4,23.2,0
					c3.1,3.1,4.8,7.2,4.8,11.6c0,4.4-1.7,8.5-4.8,11.6l0,0C391.8,318.5,387.6,320.1,383.4,320.1z M383.4,287.8
					c-4.1,0-8.1,1.5-11.2,4.6c-3,3-4.7,7-4.7,11.2s1.7,8.2,4.7,11.2c6.2,6.2,16.3,6.2,22.5,0c3-3,4.7-7,4.7-11.2s-1.7-8.2-4.7-11.2
					C391.5,289.3,387.4,287.8,383.4,287.8z"/>
				<path d="M395,315.3l-23.2-23.2l14.1-14.1l23.2,23.2L395,315.3z M372.5,292.1l22.5,22.5l13.3-13.3l-22.5-22.5L372.5,292.1z"/>
				<rect x="347" y="229.1" width="2.4" height="135.9"/>
				<path d="M332.1,365.1h15.5V229.2c0,0-2.7-2-8.4-2c-5.7,0-7.2,2-7.2,2V365.1z"/>
				<path d="M336,227.5c-3.1,0.5-4,1.7-4,1.7v135.9h4V227.5z"/>
				<path d="M345.9,228.4v136.9h2V229.3C347.9,229.3,347.3,228.9,345.9,228.4z"/>
			</g>
			<g>
				<g>
					<path class="st36" d="M336.6,365.1V222.8h92c1.9,0,3.4,1.5,3.4,3.4v135.5c0,1.9-1.5,3.4-3.4,3.4H336.6z"/>
					<rect x="343.3" y="226" class="st14" width="85.5" height="135.9"/>
					<path class="st13" d="M429.2,341.8l-0.1-10l-0.2-10l-0.2,10l-0.1,10c0,6.6-2.2,10.7-2.2,17.3c-5,0-7.9,2.4-13,2.5
						c-5.2,0-10.3,0.2-15.5,0.3c5.2,0.1,10.3,0.2,15.5,0.3c5.2,0.1,10.3,0.1,15.5,0.1l0.4,0l0-0.4
						C429.3,355.2,429.2,348.5,429.2,341.8z"/>
					<g>
						<rect x="409" y="264.3" class="st13" width="0.3" height="61.6"/>
						<polygon class="st13" points="350.4,306.6 350.2,306.4 393.8,262.8 394,263 						"/>
						<polygon class="st13" points="373.2,329.4 373,329.2 416.6,285.6 416.8,285.8 						"/>
						
							<rect x="390.8" y="251.9" transform="matrix(0.7071 -0.7071 0.7071 0.7071 -90.1676 361.2047)" class="st13" width="0.3" height="75.1"/>
						
							<rect x="382" y="260.6" transform="matrix(0.7071 -0.7071 0.7071 0.7071 -98.9206 357.5789)" class="st13" width="0.3" height="75.1"/>
						
							<rect x="404.7" y="250.9" transform="matrix(0.7071 -0.7071 0.7071 0.7071 -76.3064 366.945)" class="st13" width="0.2" height="49.3"/>
						
							<rect x="368" y="287.6" transform="matrix(0.7071 -0.7071 0.7071 0.7071 -113.0007 351.7492)" class="st13" width="0.2" height="49.3"/>
						<rect x="376.7" y="264.3" class="st13" width="0.3" height="61.6"/>
						<rect x="362.8" y="264.3" class="st13" width="0.3" height="61.6"/>
						<rect x="395.1" y="264.3" class="st13" width="0.3" height="61.6"/>
						<rect x="349.9" y="302.6" class="st13" width="66.9" height="0.3"/>
						<rect x="349.9" y="284.2" class="st13" width="66.9" height="0.3"/>
						<rect x="349.9" y="270.3" class="st13" width="66.9" height="0.3"/>
						<rect x="349.9" y="316.5" class="st13" width="66.9" height="0.3"/>
						<g>
							<path class="st39" d="M393,303c-4.2,0-8.4-1.6-11.6-4.8c-3.1-3.1-4.8-7.2-4.8-11.6c0-4.4,1.7-8.5,4.8-11.6
								c6.4-6.4,16.8-6.4,23.2,0c3.1,3.1,4.8,7.2,4.8,11.6c0,4.4-1.7,8.5-4.8,11.6C401.4,301.4,397.2,303,393,303z M393,270.7
								c-4.1,0-8.1,1.5-11.2,4.6c-3,3-4.7,7-4.7,11.2c0,4.2,1.7,8.2,4.7,11.2c6.2,6.2,16.3,6.2,22.5,0l0,0c3-3,4.7-7,4.7-11.2
								c0-4.2-1.7-8.2-4.7-11.2C401.1,272.3,397.1,270.7,393,270.7z"/>
							<path class="st39" d="M379.1,316.9c-4.2,0-8.4-1.6-11.6-4.8c-3.1-3.1-4.8-7.2-4.8-11.6c0-4.4,1.7-8.5,4.8-11.6
								c6.4-6.4,16.8-6.4,23.2,0c3.1,3.1,4.8,7.2,4.8,11.6c0,4.4-1.7,8.5-4.8,11.6l0,0C387.5,315.3,383.3,316.9,379.1,316.9z
								 M379.1,284.6c-4.1,0-8.1,1.5-11.2,4.6c-3,3-4.7,7-4.7,11.2c0,4.2,1.7,8.2,4.7,11.2c6.2,6.2,16.3,6.2,22.5,0
								c3-3,4.7-7,4.7-11.2c0-4.2-1.7-8.2-4.7-11.2C387.3,286.1,383.2,284.6,379.1,284.6z"/>
							<path class="st39" d="M390.7,312.1l-23.2-23.2l14.1-14.1l23.2,23.2L390.7,312.1z M368.3,288.9l22.5,22.5L404,298l-22.5-22.5
								L368.3,288.9z"/>
						</g>
					</g>
					<rect x="342.7" y="226" class="st40" width="2.4" height="135.9"/>
					<path class="st14" d="M327.8,361.9h15.5V226c0,0-2.7-2-8.4-2c-5.7,0-7.2,2-7.2,2V361.9z"/>
					<path class="st13" d="M331.8,224.3c-3.1,0.5-4,1.7-4,1.7v135.9h4V224.3z"/>
					<path class="st13" d="M341.7,225.2v136.9h2V226.2C343.7,226.2,343,225.7,341.7,225.2z"/>
				</g>
			</g>
		</g>
		<g class="st28">
			<g class="st2">
				<path id="XMLID_30_" d="M419.5,195.7l9.9-0.1c1.4,0,2.6-1.2,2.6-2.6l0-4.9c0-1.4-1.2-2.6-2.6-2.6l-9.9,0.1L419.5,195.7z"/>
				<path d="M432,190.6l0-2.5c0-1.4-1.2-2.6-2.6-2.6l-9.9,0.1l0,5H432z"/>
				<path d="M419.5,195.7l9.9-0.1c1.4,0,2.6-1.2,2.6-2.6l0-2.4h-12.6L419.5,195.7z"/>
				<rect x="425.2" y="185.6" width="0.6" height="10.2"/>
				<path id="XMLID_29_" d="M412.4,185.4c-1.5,0-2.7,1.2-2.7,2.7l0,5.2c0,1.5,1.2,2.7,2.7,2.7l12.7-0.1l-0.1-10.6L412.4,185.4z"/>
				<path d="M425.2,185.3l-12.7,0.1c-1.5,0-2.7,1.2-2.7,2.7l0,2.5h15.4L425.2,185.3z"/>
				<path d="M412.5,196l12.7-0.1l0-2.6l-15.4,0C409.8,194.8,411,196,412.5,196z"/>
			</g>
			<g>
				<g>
					<path id="XMLID_24_" class="st41" d="M416.3,192.5l9.9-0.1c1.4,0,2.6-1.2,2.6-2.6l0-4.9c0-1.4-1.2-2.6-2.6-2.6l-9.9,0.1
						L416.3,192.5z"/>
					<path class="st14" d="M428.8,187.4l0-2.5c0-1.4-1.2-2.6-2.6-2.6l-9.9,0.1l0,5H428.8z"/>
					<path class="st8" d="M416.3,192.5l9.9-0.1c1.4,0,2.6-1.2,2.6-2.6l0-2.4h-12.6L416.3,192.5z"/>
					<rect x="422" y="182.4" class="st13" width="0.6" height="10.2"/>
					<path id="XMLID_23_" class="st36" d="M409.3,182.2c-1.5,0-2.7,1.2-2.7,2.7l0,5.2c0,1.5,1.2,2.7,2.7,2.7l12.7-0.1l-0.1-10.6
						L409.3,182.2z"/>
					<path class="st37" d="M422,182.2l-12.7,0.1c-1.5,0-2.7,1.2-2.7,2.7l0,2.5H422L422,182.2z"/>
					<path class="st23" d="M409.3,192.8l12.7-0.1l0-2.6l-15.4,0C406.6,191.6,407.8,192.9,409.3,192.8z"/>
				</g>
			</g>
		</g>
	</g>
	<g>
		<g class="st2">
			<path d="M66.1,117.5H17c-4.1,0-7.3,3.3-7.3,7.3v103.3c0,4.1,3.3,7.3,7.3,7.3h49c4.1,0,7.3-3.3,7.3-7.3V124.9
				C73.4,120.8,70.1,117.5,66.1,117.5z"/>
			<rect x="10.9" y="128.8" width="61.4" height="95"/>
			<path d="M17,118.6c-3.5,0-6.3,2.8-6.3,6.3v103.3c0,3.5,2.8,6.3,6.3,6.3h3.3l44.6-115.9H17z"/>
			<path d="M72.3,124.9c0-2.4-1.4-4.6-3.4-5.6L24.6,234.5h7.2L72.3,129V124.9z"/>
			<circle cx="19.2" cy="123.2" r="0.7"/>
			<circle cx="20.8" cy="123.2" r="0.3"/>
			<circle cx="21.9" cy="123.2" r="0.3"/>
			<rect x="20" y="228.4" width="2.5" height="0.7"/>
			<rect x="20" y="229.3" width="2.5" height="0.7"/>
			<rect x="20" y="230.3" width="2.5" height="0.7"/>
			<path d="M40.2,228.3c-0.1,0-0.2,0.1-0.2,0.2v2.4c0,0.1,0.1,0.2,0.2,0.2h2.5c0.1,0,0.2-0.1,0.2-0.2v-2.4c0-0.1-0.1-0.2-0.2-0.2
				H40.2z M42.4,230.5c0,0.1-0.1,0.2-0.2,0.2h-1.7c-0.1,0-0.2-0.1-0.2-0.2v-1.6c0-0.1,0.1-0.2,0.2-0.2h1.7c0.1,0,0.2,0.1,0.2,0.2
				V230.5z"/>
			<path d="M62.1,229.8c-0.1-0.1-0.1-0.2,0-0.2l0.9-0.9c0.1-0.1,0.1-0.2,0.1-0.2c0-0.1,0-0.1-0.1-0.2l-0.2-0.2
				c-0.1-0.1-0.2-0.1-0.2,0l-1.5,1.6c-0.1,0.1-0.1,0.2,0,0.2l1.6,1.5c0.1,0.1,0.2,0.1,0.2,0l0.2-0.2c0.1-0.1,0.1-0.2,0.1-0.2
				c0-0.1,0-0.2-0.1-0.2L62.1,229.8z"/>
		</g>
		<g>
			<g>
				<path class="st5" d="M61.8,113.3h-49c-4.1,0-7.3,3.3-7.3,7.3V224c0,4.1,3.3,7.3,7.3,7.3h49c4.1,0,7.3-3.3,7.3-7.3V120.6
					C69.2,116.6,65.9,113.3,61.8,113.3z"/>
				<rect x="6.7" y="124.6" class="st9" width="61.4" height="95"/>
				<g class="st11">
					<path class="st12" d="M12.8,114.4c-3.5,0-6.3,2.8-6.3,6.3V224c0,3.5,2.8,6.3,6.3,6.3H16l44.6-115.9H12.8z"/>
					<path class="st12" d="M68.1,120.6c0-2.4-1.4-4.6-3.4-5.6L20.3,230.2h7.2l40.6-105.5V120.6z"/>
				</g>
				<circle class="st5" cx="14.9" cy="118.9" r="0.7"/>
				<circle class="st5" cx="16.5" cy="118.9" r="0.3"/>
				<circle class="st5" cx="17.6" cy="118.9" r="0.3"/>
				<g>
					<g>
						<rect x="15.8" y="224.2" class="st8" width="2.5" height="0.7"/>
						<rect x="15.8" y="225.1" class="st8" width="2.5" height="0.7"/>
						<rect x="15.8" y="226" class="st8" width="2.5" height="0.7"/>
					</g>
					<path class="st8" d="M35.9,224c-0.1,0-0.2,0.1-0.2,0.2v2.4c0,0.1,0.1,0.2,0.2,0.2h2.5c0.1,0,0.2-0.1,0.2-0.2v-2.4
						c0-0.1-0.1-0.2-0.2-0.2H35.9z M38.2,226.2c0,0.1-0.1,0.2-0.2,0.2h-1.7c-0.1,0-0.2-0.1-0.2-0.2v-1.6c0-0.1,0.1-0.2,0.2-0.2H38
						c0.1,0,0.2,0.1,0.2,0.2V226.2z"/>
					<path class="st8" d="M57.8,225.6c-0.1-0.1-0.1-0.2,0-0.2l0.9-0.9c0.1-0.1,0.1-0.2,0.1-0.2c0-0.1,0-0.1-0.1-0.2l-0.2-0.2
						c-0.1-0.1-0.2-0.1-0.2,0l-1.5,1.6c-0.1,0.1-0.1,0.2,0,0.2l1.6,1.5c0.1,0.1,0.2,0.1,0.2,0l0.2-0.2c0.1-0.1,0.1-0.2,0.1-0.2
						c0-0.1,0-0.2-0.1-0.2L57.8,225.6z"/>
				</g>
			</g>
		</g>
	</g>
	<g class="st0">
		<g class="st27">
			<path class="st3" d="M183.1,260.9l-1.8-1.7l-2.9,2.9c0,0-0.3,0.2-0.3,0.6c0,0.6,0.3,1.3,0.3,1.3s0.1,0.5,0.5,0.6
				c0.3,0.1,0.5-0.1,0.5-0.1L183.1,260.9z"/>
			<path class="st3" d="M172.6,271.6c0,0,0.3-0.3,0.1-0.5c-0.2-0.4-0.6-0.5-0.6-0.5s-0.7-0.4-1.3-0.3c-0.4,0-0.6,0.3-0.6,0.3
				l-2.9,2.9l1.7,1.8L172.6,271.6z"/>
			<path class="st3" d="M171.9,269.7c0,0,0.4-0.1,1.1-0.1c0.5,0,1,0.1,1.3,0.1c0.3,0,0.6-0.4,0.6-0.4l2.2-2.2c0,0,0.4-0.3,0.5-0.8
				c0.1-0.5-0.1-1.1-0.1-1.7c0.1-0.9,0-0.9,0-0.9L171.9,269.7z"/>
			<path class="st3" d="M177.6,266.5c0,0-0.4,0.3-0.9,0.4c-0.3,0.1-0.6,0.2-0.6,0.2s-0.4,0-0.6,0.3c-0.2,0.2-0.3,0.7-0.3,0.7
				s-0.1,0.4-0.3,0.9c-0.1,0.4-0.5,0.7-0.5,0.7s0.9-0.8,1.8-1.6C177,267.3,177.6,266.5,177.6,266.5z"/>
			<path class="st3" d="M167.8,274l-7.3-7.2l14.1-14.2l7.3,7.2L167.8,274z"/>
			<path class="st3" d="M161,267.2l-0.5-0.5l14.1-14.2l0.5,0.5L161,267.2z"/>
			<path class="st3" d="M173.2,268.5c-0.2-0.7-0.6-1.2-0.6-1.2l-4.6-6.2l-0.8-1l-0.7,0.7l5,6.7c0,0,0.6,0.7,0.8,1.4
				c0.1,0.1,0.1,0.3,0.1,0.4L173.2,268.5z"/>
			<path class="st3" d="M179.1,262.4c-0.2,0-0.4-0.1-0.4-0.1s-0.5-0.2-1-0.6c-1.5-1.1-4.7-3.4-7-5.2l-0.7,0.7l2.6,2c0,0,1.3,1,2.7,2
				c1.1,0.8,2.3,1.7,2.3,1.7s0.4,0.2,0.9,0.4l0.8-0.8C179.2,262.4,179.2,262.4,179.1,262.4z"/>
			<path class="st3" d="M171.3,270.7c0,0,0.1-0.5-0.1-1c-0.3-0.7-1-1.6-1-1.6l-9.6-12.2c0,0-0.4-0.6-1.3-0.8c-0.8-0.1-2.2,0-3.1,0
				c-1.2-0.1-1.8-0.3-1.8-0.3s-1.3-0.5-1.7-1.6c-0.5-1.7,0.4-3.2,0.4-3.2s0.4-0.8,1.2-1.6c0.7-0.8,1.6-1.7,2.5-2.4
				c1.2-1,2.4-1.2,2.4-1.2s1.9-0.4,2.9,0.7c0.9,0.9,1,2,1,2.8c0,0.5,0,0.9,0,0.9s-0.4,1.8,0.2,2.8c0.5,0.8,1.6,1.5,1.6,1.5
				s8.6,6.6,11.6,9c0.6,0.5,1.2,0.8,1.2,0.8s0.2,0.1,0.5,0.1c0.2,0,0.5,0,0.5,0l0.4,0.9c0,0-0.6,0.1-1.1,0c-0.7-0.2-1.5-0.6-1.5-0.6
				s-1.3-1-2.7-2c-1.5-1.2-3.1-2.4-3.1-2.4l-5.3-4.1c0,0-1.8-1.2-2.8-2.3c-0.7-0.7-0.6-1.6-0.6-1.6s0-0.5,0-1.2c0-0.7,0.1-1.5,0-2.2
				c0-0.8-0.3-1.2-0.3-1.2s-0.5-1-1.6-1.1c-0.9-0.1-2.5,0.9-2.5,0.9s-2,1.7-3.2,3.2c-0.8,1-1,2.1-1,2.1s-0.2,1.2,0.7,1.9
				c0.7,0.6,2.4,0.5,2.4,0.5s0.5-0.1,1.3-0.1c0.6,0,1.3,0,1.9,0.2c0.9,0.3,1.7,1.4,1.7,1.4l4.2,5.3l5.6,7.2c0,0,0.7,0.9,0.9,1.8
				c0.1,0.6-0.3,1.3-0.3,1.3L171.3,270.7z"/>
		</g>
		<g class="st28">
			<g>
				<g>
					<path class="st18" d="M180.6,259.7l-1.8-1.7l-2.9,2.9c0,0-0.3,0.2-0.3,0.6c0,0.6,0.3,1.3,0.3,1.3s0.1,0.5,0.5,0.6
						c0.3,0.1,0.5-0.1,0.5-0.1L180.6,259.7z"/>
				</g>
				<g>
					<path class="st18" d="M170.1,270.3c0,0,0.3-0.3,0.1-0.5c-0.2-0.4-0.6-0.5-0.6-0.5s-0.7-0.4-1.3-0.3c-0.4,0-0.6,0.3-0.6,0.3
						l-2.9,2.9l1.7,1.8L170.1,270.3z"/>
				</g>
				<g>
					<path class="st18" d="M169.4,268.5c0,0,0.4-0.1,1.1-0.1c0.5,0,1,0.1,1.3,0.1c0.3,0,0.6-0.4,0.6-0.4l2.2-2.2
						c0,0,0.4-0.3,0.5-0.8c0.1-0.5-0.1-1.1-0.1-1.7c0.1-0.9,0-0.9,0-0.9L169.4,268.5z"/>
				</g>
				<g>
					<path class="st17" d="M175.1,265.2c0,0-0.4,0.3-0.9,0.4c-0.3,0.1-0.6,0.2-0.6,0.2s-0.4,0-0.6,0.3c-0.2,0.2-0.3,0.7-0.3,0.7
						s-0.1,0.4-0.3,0.9c-0.1,0.4-0.5,0.7-0.5,0.7s0.9-0.8,1.8-1.6C174.5,266.1,175.1,265.2,175.1,265.2z"/>
				</g>
				<g>
					<path class="st17" d="M165.3,272.7l-7.3-7.2l14.1-14.2l7.3,7.2L165.3,272.7z"/>
				</g>
				<g>
					<path class="st18" d="M158.5,266l-0.5-0.5l14.1-14.2l0.5,0.5L158.5,266z"/>
				</g>
				<g class="st42">
					<path class="st3" d="M170.7,267.3c-0.2-0.7-0.6-1.2-0.6-1.2l-4.6-6.2l-0.8-1l-0.7,0.7l5,6.7c0,0,0.6,0.7,0.8,1.4
						c0.1,0.1,0.1,0.3,0.1,0.4L170.7,267.3z"/>
					<path class="st3" d="M176.7,261.1c-0.2,0-0.4-0.1-0.4-0.1s-0.5-0.2-1-0.6c-1.5-1.1-4.7-3.4-7-5.2l-0.7,0.7l2.6,2
						c0,0,1.3,1,2.7,2c1.1,0.8,2.3,1.7,2.3,1.7s0.4,0.2,0.9,0.4l0.8-0.8C176.7,261.1,176.7,261.1,176.7,261.1z"/>
				</g>
				<g>
					<path class="st26" d="M168.8,269.4c0,0,0.1-0.5-0.1-1c-0.3-0.7-1-1.6-1-1.6l-9.6-12.2c0,0-0.4-0.6-1.3-0.8
						c-0.8-0.1-2.2,0-3.1,0c-1.2-0.1-1.8-0.3-1.8-0.3s-1.3-0.5-1.7-1.6c-0.5-1.7,0.4-3.2,0.4-3.2s0.4-0.8,1.2-1.6
						c0.7-0.8,1.6-1.7,2.5-2.4c1.2-1,2.4-1.2,2.4-1.2s1.9-0.4,2.9,0.7c0.9,0.9,1,2,1,2.8c0,0.5,0,0.9,0,0.9s-0.4,1.8,0.2,2.8
						c0.5,0.8,1.6,1.5,1.6,1.5s8.6,6.6,11.6,9c0.6,0.5,1.2,0.8,1.2,0.8s0.2,0.1,0.5,0.1c0.2,0,0.5,0,0.5,0l0.4,0.9
						c0,0-0.6,0.1-1.1,0c-0.7-0.2-1.5-0.6-1.5-0.6s-1.3-1-2.7-2c-1.5-1.2-3.1-2.4-3.1-2.4l-5.3-4.1c0,0-1.8-1.2-2.8-2.3
						c-0.7-0.7-0.6-1.6-0.6-1.6s0-0.5,0-1.2c0-0.7,0.1-1.5,0-2.2c0-0.8-0.3-1.2-0.3-1.2s-0.5-1-1.6-1.1c-0.9-0.1-2.5,0.9-2.5,0.9
						s-2,1.7-3.2,3.2c-0.8,1-1,2.1-1,2.1s-0.2,1.2,0.7,1.9c0.7,0.6,2.4,0.5,2.4,0.5s0.5-0.1,1.3-0.1c0.6,0,1.3,0,1.9,0.2
						c0.9,0.3,1.7,1.4,1.7,1.4l4.2,5.3l5.6,7.2c0,0,0.7,0.9,0.9,1.8c0.1,0.6-0.3,1.3-0.3,1.3L168.8,269.4z"/>
				</g>
			</g>
		</g>
	</g>
	<g class="st0">
		<g class="st27">
			<path d="M71.6,345.1L24,297.5l-40.1,40.1l47.6,47.6c1.5,1.5,4,1.5,5.5,0l34.6-34.6C73.1,349.1,73.1,346.6,71.6,345.1z
				 M-10.2,338.2c-0.7-0.7-0.7-1.7,0-2.4c0.7-0.7,1.7-0.7,2.4,0c0.7,0.7,0.7,1.7,0,2.4C-8.5,338.9-9.6,338.9-10.2,338.2z
				 M-4.9,332.9c-0.7-0.7-0.7-1.7,0-2.4c0.7-0.7,1.7-0.7,2.4,0s0.7,1.7,0,2.4C-3.2,333.6-4.3,333.6-4.9,332.9z M0.4,327.6
				c-0.7-0.7-0.7-1.7,0-2.4c0.7-0.7,1.7-0.7,2.4,0c0.7,0.7,0.7,1.7,0,2.4C2.1,328.3,1,328.3,0.4,327.6z M5.8,322.1
				c-0.7-0.7-0.7-1.7,0-2.4c0.7-0.7,1.7-0.7,2.4,0c0.7,0.7,0.7,1.7,0,2.4C7.6,322.8,6.5,322.8,5.8,322.1z M11.1,316.8
				c-0.7-0.7-0.7-1.7,0-2.4c0.7-0.7,1.7-0.7,2.4,0c0.7,0.7,0.7,1.7,0,2.4C12.9,317.5,11.8,317.5,11.1,316.8z M16.6,311.4
				c-0.7-0.7-0.7-1.7,0-2.4c0.7-0.7,1.7-0.7,2.4,0c0.7,0.7,0.7,1.7,0,2.4C18.4,312,17.3,312,16.6,311.4z M21.8,306.1
				c-0.7-0.7-0.7-1.7,0-2.4c0.7-0.7,1.7-0.7,2.4,0c0.7,0.7,0.7,1.7,0,2.4C23.6,306.8,22.5,306.8,21.8,306.1z"/>
			<path d="M71,344.5l-47.4-47.4l-40.1,40.1l47.4,47.4c1.5,1.5,4,1.5,5.5,0L71,350C72.6,348.5,72.6,346,71,344.5z M-10.6,337.9
				c-0.7-0.7-0.7-1.7,0-2.4c0.7-0.7,1.7-0.7,2.4,0c0.7,0.7,0.7,1.7,0,2.4C-8.8,338.5-9.9,338.5-10.6,337.9z M-5.3,332.6
				c-0.7-0.7-0.7-1.7,0-2.4c0.7-0.7,1.7-0.7,2.4,0c0.7,0.7,0.7,1.7,0,2.4C-3.5,333.2-4.6,333.2-5.3,332.6z M0,327.3
				c-0.7-0.7-0.7-1.7,0-2.4c0.7-0.7,1.7-0.7,2.4,0c0.7,0.7,0.7,1.7,0,2.4C1.8,327.9,0.7,327.9,0,327.3z M5.5,321.8
				c-0.7-0.7-0.7-1.7,0-2.4c0.7-0.7,1.7-0.7,2.4,0c0.7,0.7,0.7,1.7,0,2.4C7.3,322.5,6.2,322.5,5.5,321.8z M10.8,316.5
				c-0.7-0.7-0.7-1.7,0-2.4c0.7-0.7,1.7-0.7,2.4,0c0.7,0.7,0.7,1.7,0,2.4C12.6,317.2,11.5,317.2,10.8,316.5z M16.3,311
				c-0.7-0.7-0.7-1.7,0-2.4c0.7-0.7,1.7-0.7,2.4,0c0.7,0.7,0.7,1.7,0,2.4C18,311.7,16.9,311.7,16.3,311z M21.5,305.8
				c-0.7-0.7-0.7-1.7,0-2.4c0.7-0.7,1.7-0.7,2.4,0c0.7,0.7,0.7,1.7,0,2.4C23.2,306.5,22.2,306.5,21.5,305.8z"/>
			<path d="M21.5,303.4C21.5,303.4,21.5,303.4,21.5,303.4c0.3-0.3,0.7-0.5,1-0.5c0,0-0.1-0.1-0.1-0.1c-0.7-0.7-1.5-1.4-2.1-2.1
				c0,0-0.1-0.1-0.1-0.1l-0.8,0.8c0,0,0.1,0.1,0.1,0.1C20.2,302.2,20.9,302.9,21.5,303.4z"/>
			<path d="M16.2,308.7c0,0,0.1-0.1,0.1-0.1c0.2-0.2,0.5-0.4,0.8-0.5c0,0-0.1,0-0.1-0.1c-0.7-0.7-1.5-1.4-2.1-2.1
				c0,0-0.1-0.1-0.1-0.1l-0.8,0.8c0,0,0.1,0.1,0.1,0.1C14.8,307.5,15.6,308.2,16.2,308.7z"/>
			<path d="M10.7,314.2c0-0.1,0.1-0.1,0.1-0.2c0.2-0.2,0.5-0.4,0.8-0.4c0,0,0,0-0.1-0.1c-0.7-0.7-1.5-1.4-2.1-2.1
				c0,0-0.1-0.1-0.1-0.1l-0.8,0.8c0,0,0.1,0.1,0.1,0.1C9.3,313,10.1,313.7,10.7,314.2z"/>
			<path d="M5.4,319.5c0,0,0.1-0.1,0.1-0.1c0.2-0.2,0.5-0.4,0.9-0.5c0,0-0.1,0-0.1-0.1c-0.7-0.7-1.5-1.4-2.1-2.1
				c0,0-0.1-0.1-0.1-0.1l-0.8,0.8c0,0,0.1,0.1,0.1,0.1C4.1,318.2,4.8,318.9,5.4,319.5z"/>
			<path d="M0,325C0,324.9,0,324.9,0,325c0.3-0.3,0.6-0.5,1-0.6c0,0-0.1,0-0.1-0.1c-0.7-0.7-1.5-1.4-2.1-2.1c0,0-0.1-0.1-0.1-0.1
				l-0.8,0.8c0,0,0.1,0.1,0.1,0.1C-1.4,323.7-0.7,324.4,0,325z"/>
			<path d="M-5.4,330.3c0,0,0.1-0.1,0.1-0.1c0.2-0.2,0.5-0.4,0.8-0.5c0,0-0.1,0-0.1-0.1c-0.7-0.7-1.5-1.4-2.1-2.1
				c0,0-0.1-0.1-0.1-0.1l-0.8,0.8c0,0,0.1,0.1,0.1,0.1C-6.7,329-6,329.7-5.4,330.3z"/>
			<path d="M-10.7,335.6c0-0.1,0.1-0.1,0.1-0.2c0.2-0.2,0.5-0.4,0.8-0.4c0,0,0,0-0.1-0.1c-0.7-0.7-1.5-1.4-2.1-2.1
				c0,0-0.1-0.1-0.1-0.1l-0.8,0.8c0,0,0.1,0.1,0.1,0.1C-12,334.3-11.3,335-10.7,335.6z"/>
			<path d="M24.2,303.6c-0.7-0.7-1.8-0.7-2.5,0c-0.7,0.7-0.7,1.8,0,2.5s1.8,0.7,2.5,0C24.9,305.4,24.9,304.3,24.2,303.6z
				 M22.1,305.7c-0.5-0.5-0.5-1.2,0-1.7c0.5-0.5,1.2-0.5,1.7,0c0.5,0.5,0.5,1.2,0,1.7C23.3,306.1,22.6,306.1,22.1,305.7z"/>
			<path d="M18.9,308.9c-0.7-0.7-1.8-0.7-2.5,0c-0.7,0.7-0.7,1.8,0,2.5c0.7,0.7,1.8,0.7,2.5,0C19.6,310.7,19.6,309.5,18.9,308.9z
				 M16.9,310.9c-0.5-0.5-0.5-1.2,0-1.7c0.5-0.5,1.2-0.5,1.7,0c0.5,0.5,0.5,1.2,0,1.7C18.1,311.4,17.3,311.4,16.9,310.9z"/>
			<path d="M13.5,314.4c-0.7-0.7-1.8-0.7-2.5,0c-0.7,0.7-0.7,1.8,0,2.5c0.7,0.7,1.8,0.7,2.5,0C14.2,316.2,14.2,315.1,13.5,314.4z
				 M11.4,316.5c-0.5-0.5-0.5-1.2,0-1.7c0.5-0.5,1.2-0.5,1.7,0c0.5,0.5,0.5,1.2,0,1.7C12.6,316.9,11.9,316.9,11.4,316.5z"/>
			<path d="M8.2,319.6c-0.7-0.7-1.8-0.7-2.5,0c-0.7,0.7-0.7,1.8,0,2.5s1.8,0.7,2.5,0C8.8,321.4,8.8,320.3,8.2,319.6z M6.1,321.7
				c-0.5-0.5-0.5-1.2,0-1.7c0.5-0.5,1.2-0.5,1.7,0c0.5,0.5,0.5,1.2,0,1.7C7.3,322.1,6.5,322.1,6.1,321.7z"/>
			<path d="M2.7,325.1c-0.7-0.7-1.8-0.7-2.5,0c-0.7,0.7-0.7,1.8,0,2.5c0.7,0.7,1.8,0.7,2.5,0C3.4,326.9,3.4,325.8,2.7,325.1z
				 M0.6,327.2c-0.5-0.5-0.5-1.2,0-1.7c0.5-0.5,1.2-0.5,1.7,0c0.5,0.5,0.5,1.2,0,1.7C1.8,327.6,1.1,327.6,0.6,327.2z"/>
			<path d="M-2.5,330.5c-0.7-0.7-1.8-0.7-2.5,0c-0.7,0.7-0.7,1.8,0,2.5c0.7,0.7,1.8,0.7,2.5,0C-1.9,332.2-1.9,331.1-2.5,330.5z
				 M-4.6,332.5c-0.5-0.5-0.5-1.2,0-1.7c0.5-0.5,1.2-0.5,1.7,0c0.5,0.5,0.5,1.2,0,1.7S-4.2,333-4.6,332.5z"/>
			<path d="M-7.9,335.7c-0.7-0.7-1.8-0.7-2.5,0c-0.7,0.7-0.7,1.8,0,2.5c0.7,0.7,1.8,0.7,2.5,0C-7.2,337.5-7.2,336.4-7.9,335.7z
				 M-10,337.8c-0.5-0.5-0.5-1.2,0-1.7c0.5-0.5,1.2-0.5,1.7,0c0.5,0.5,0.5,1.2,0,1.7C-8.8,338.2-9.5,338.2-10,337.8z"/>
			<path d="M23.9,303.4c-0.7-0.7-1.8-0.7-2.5,0c-0.7,0.7-0.7,1.8,0,2.5c0.7,0.7,1.8,0.7,2.5,0C24.6,305.2,24.6,304.1,23.9,303.4z
				 M21.9,305.4c-0.5-0.5-0.5-1.2,0-1.7c0.5-0.5,1.2-0.5,1.7,0c0.5,0.5,0.5,1.2,0,1.7C23.1,305.9,22.3,305.9,21.9,305.4z"/>
			<path d="M18.7,308.6c-0.7-0.7-1.8-0.7-2.5,0c-0.7,0.7-0.7,1.8,0,2.5c0.7,0.7,1.8,0.7,2.5,0C19.4,310.4,19.4,309.3,18.7,308.6z
				 M16.6,310.7c-0.5-0.5-0.5-1.2,0-1.7c0.5-0.5,1.2-0.5,1.7,0c0.5,0.5,0.5,1.2,0,1.7C17.8,311.1,17.1,311.1,16.6,310.7z"/>
			<path d="M13.2,314.2c-0.7-0.7-1.8-0.7-2.5,0c-0.7,0.7-0.7,1.8,0,2.5c0.7,0.7,1.8,0.7,2.5,0C13.9,316,13.9,314.9,13.2,314.2z
				 M11.2,316.2c-0.5-0.5-0.5-1.2,0-1.7c0.5-0.5,1.2-0.5,1.7,0c0.5,0.5,0.5,1.2,0,1.7C12.4,316.7,11.6,316.7,11.2,316.2z"/>
			<path d="M7.9,319.4c-0.7-0.7-1.8-0.7-2.5,0c-0.7,0.7-0.7,1.8,0,2.5s1.8,0.7,2.5,0C8.6,321.2,8.6,320,7.9,319.4z M5.8,321.4
				c-0.5-0.5-0.5-1.2,0-1.7c0.5-0.5,1.2-0.5,1.7,0c0.5,0.5,0.5,1.2,0,1.7C7,321.9,6.3,321.9,5.8,321.4z"/>
			<path d="M2.5,324.8c-0.7-0.7-1.8-0.7-2.5,0c-0.7,0.7-0.7,1.8,0,2.5c0.7,0.7,1.8,0.7,2.5,0C3.2,326.6,3.2,325.5,2.5,324.8z
				 M0.4,326.9c-0.5-0.5-0.5-1.2,0-1.7c0.5-0.5,1.2-0.5,1.7,0c0.5,0.5,0.5,1.2,0,1.7C1.6,327.4,0.9,327.4,0.4,326.9z"/>
			<path d="M-2.8,330.2c-0.7-0.7-1.8-0.7-2.5,0c-0.7,0.7-0.7,1.8,0,2.5c0.7,0.7,1.8,0.7,2.5,0C-2.1,332-2.1,330.9-2.8,330.2z
				 M-4.8,332.3c-0.5-0.5-0.5-1.2,0-1.7c0.5-0.5,1.2-0.5,1.7,0c0.5,0.5,0.5,1.2,0,1.7C-3.6,332.7-4.4,332.7-4.8,332.3z"/>
			<path d="M-8.2,335.5c-0.7-0.7-1.8-0.7-2.5,0c-0.7,0.7-0.7,1.8,0,2.5c0.7,0.7,1.8,0.7,2.5,0C-7.5,337.3-7.5,336.1-8.2,335.5z
				 M-10.2,337.5c-0.5-0.5-0.5-1.2,0-1.7s1.2-0.5,1.7,0c0.5,0.5,0.5,1.2,0,1.7C-9,338-9.8,338-10.2,337.5z"/>
			<path d="M23,304.1c-0.3-0.3-0.7-0.6-1.1-1c-0.7-0.7-1.5-1.4-2.1-2.1c-0.7-0.8-1.3-1.6-1.3-2.2c0-0.2,0-0.2,0.1-0.3
				c0.1-0.1,0.1-0.1,0.3-0.1c0.6,0,1.6,0.6,2.3,1.2l0.8-0.8c-0.7-0.6-2.1-1.6-3.2-1.5c-0.4,0-0.8,0.2-1.1,0.5
				c-0.2,0.3-0.4,0.7-0.3,1.1c0.1,0.8,0.8,1.9,1.6,2.8c0.7,0.8,1.5,1.6,2.1,2.2c0.6,0.5,1,0.9,1.2,1c0.1,0.1,0.2,0.1,0.3,0.1
				c0.2,0,0.3-0.1,0.4-0.2C23.3,304.6,23.3,304.3,23,304.1z"/>
			<path d="M16.6,308.4c-0.7-0.7-1.5-1.4-2.1-2.1c-0.7-0.8-1.2-1.6-1.2-2.1c0-0.2,0-0.2,0.1-0.3c0.1-0.1,0.1-0.1,0.3-0.1
				c0.6,0,1.5,0.6,2.3,1.1l0.8-0.8c-0.7-0.6-2-1.5-3.1-1.4c-0.4,0-0.8,0.2-1,0.5c-0.2,0.3-0.4,0.7-0.3,1.1c0.1,0.8,0.7,1.8,1.6,2.8
				c0.7,0.8,1.5,1.6,2.2,2.2c0.6,0.5,1.1,0.9,1.2,1c0.1,0.1,0.2,0.1,0.3,0.1c0.2,0,0.3-0.1,0.4-0.2c0.2-0.2,0.1-0.6-0.1-0.7
				C17.4,309.2,17,308.8,16.6,308.4z"/>
			<path d="M11.1,313.9c-0.7-0.7-1.5-1.4-2.1-2.1c-0.7-0.8-1.2-1.5-1.2-2.1c0-0.2,0-0.2,0.1-0.3c0.1-0.1,0.1-0.1,0.3-0.1
				c0.6,0,1.5,0.5,2.2,1.1l0.8-0.8c-0.7-0.6-2-1.5-3-1.4c-0.4,0-0.8,0.2-1.1,0.5c-0.2,0.3-0.4,0.7-0.3,1.1c0.1,0.8,0.7,1.8,1.5,2.7
				c0.7,0.8,1.5,1.6,2.2,2.2c0.6,0.6,1.1,1,1.3,1.1c0.1,0.1,0.2,0.1,0.3,0.1c0.2,0,0.3-0.1,0.4-0.2c0.2-0.2,0.1-0.6-0.1-0.7
				C12,314.7,11.5,314.3,11.1,313.9z"/>
			<path d="M5.8,319.2c-0.7-0.7-1.5-1.4-2.1-2.1c-0.7-0.8-1.2-1.6-1.3-2.1c0-0.2,0-0.2,0.1-0.3c0.1-0.1,0.1-0.1,0.3-0.1
				c0.6,0,1.6,0.6,2.3,1.2l0.8-0.8c-0.7-0.6-2-1.5-3.1-1.5c-0.4,0-0.8,0.2-1.1,0.5c-0.2,0.3-0.4,0.7-0.3,1.1
				c0.1,0.8,0.7,1.8,1.6,2.8c0.7,0.8,1.5,1.6,2.2,2.2c0.6,0.5,1.1,0.9,1.2,1c0.1,0.1,0.2,0.1,0.3,0.1c0.2,0,0.3-0.1,0.4-0.2
				c0.2-0.2,0.1-0.6-0.1-0.7C6.6,319.9,6.2,319.5,5.8,319.2z"/>
			<path d="M0.4,324.6c-0.7-0.7-1.5-1.4-2.1-2.1c-0.7-0.8-1.2-1.6-1.2-2.1c0-0.2,0-0.2,0.1-0.3c0.1-0.1,0.1-0.1,0.3-0.1
				c0.6,0,1.5,0.6,2.3,1.1l0.8-0.8c-0.7-0.6-2-1.5-3.1-1.4c-0.4,0-0.8,0.2-1.1,0.5c-0.2,0.3-0.4,0.7-0.3,1.1
				c0.1,0.8,0.7,1.8,1.5,2.7c0.7,0.8,1.5,1.6,2.2,2.2c0.6,0.6,1.1,1,1.2,1.1c0.1,0.1,0.2,0.1,0.3,0.1c0.2,0,0.3-0.1,0.4-0.2
				c0.2-0.2,0.1-0.6-0.1-0.7C1.2,325.4,0.8,325,0.4,324.6z"/>
			<path d="M-5,329.9c-0.7-0.7-1.5-1.4-2.1-2.1c-0.7-0.8-1.1-1.5-1.2-2c0-0.2,0-0.2,0.1-0.3c0.1-0.1,0.1-0.1,0.3-0.1
				c0.6,0,1.5,0.5,2.2,1.1l0.8-0.8c-0.7-0.6-2-1.5-3-1.4c-0.4,0-0.8,0.2-1.1,0.5c-0.2,0.3-0.4,0.7-0.3,1.1c0.1,0.8,0.7,1.8,1.5,2.7
				c0.7,0.8,1.5,1.6,2.2,2.2c0.6,0.6,1.1,1,1.3,1.1c0.1,0.1,0.2,0.1,0.3,0.1c0.2,0,0.3-0.1,0.4-0.2c0.2-0.2,0.1-0.6-0.1-0.7
				C-4.1,330.7-4.5,330.3-5,329.9z"/>
			<path d="M-10.3,335.3c-0.7-0.7-1.5-1.4-2.1-2.1c-0.7-0.8-1.2-1.6-1.3-2.1c0-0.2,0-0.2,0.1-0.3c0.1-0.1,0.1-0.1,0.3-0.1
				c0.6,0,1.6,0.6,2.3,1.2l0.8-0.8c-0.7-0.6-2-1.5-3.1-1.5c-0.4,0-0.8,0.2-1.1,0.5c-0.2,0.3-0.4,0.7-0.3,1.1
				c0.1,0.8,0.7,1.8,1.6,2.8c0.7,0.8,1.5,1.6,2.2,2.2c0.6,0.5,1,0.9,1.2,1c0.1,0.1,0.2,0.1,0.3,0.1c0.2,0,0.3-0.1,0.4-0.2
				c0.2-0.2,0.1-0.6-0.1-0.7C-9.5,336-9.9,335.6-10.3,335.3z"/>
			<rect x="20.2" y="361.4" transform="matrix(0.7071 -0.7071 0.7071 0.7071 -241.8245 140.3568)" width="56.7" height="1.4"/>
			<rect x="19.9" y="361.5" transform="matrix(0.7071 -0.7071 0.7071 0.7071 -241.7256 140.118)" width="56.7" height="0.7"/>
		</g>
		<g class="st28">
			<g>
				<g>
					<path class="st37" d="M67.4,345.1l-47.6-47.6l-40.1,40.1l47.6,47.6c1.5,1.5,4,1.5,5.5,0l34.6-34.6
						C68.9,349.1,68.9,346.6,67.4,345.1z M-14.5,338.2c-0.7-0.7-0.7-1.7,0-2.4c0.7-0.7,1.7-0.7,2.4,0c0.7,0.7,0.7,1.7,0,2.4
						C-12.7,338.9-13.8,338.9-14.5,338.2z M-9.2,332.9c-0.7-0.7-0.7-1.7,0-2.4c0.7-0.7,1.7-0.7,2.4,0c0.7,0.7,0.7,1.7,0,2.4
						C-7.4,333.6-8.5,333.6-9.2,332.9z M-3.9,327.6c-0.7-0.7-0.7-1.7,0-2.4c0.7-0.7,1.7-0.7,2.4,0c0.7,0.7,0.7,1.7,0,2.4
						C-2.1,328.3-3.2,328.3-3.9,327.6z M1.6,322.1c-0.7-0.7-0.7-1.7,0-2.4c0.7-0.7,1.7-0.7,2.4,0c0.7,0.7,0.7,1.7,0,2.4
						C3.3,322.8,2.3,322.8,1.6,322.1z M6.9,316.8c-0.7-0.7-0.7-1.7,0-2.4c0.7-0.7,1.7-0.7,2.4,0c0.7,0.7,0.7,1.7,0,2.4
						C8.6,317.5,7.6,317.5,6.9,316.8z M12.4,311.4c-0.7-0.7-0.7-1.7,0-2.4c0.7-0.7,1.7-0.7,2.4,0s0.7,1.7,0,2.4
						C14.1,312,13,312,12.4,311.4z M17.6,306.1c-0.7-0.7-0.7-1.7,0-2.4c0.7-0.7,1.7-0.7,2.4,0c0.7,0.7,0.7,1.7,0,2.4
						C19.3,306.8,18.2,306.8,17.6,306.1z"/>
				</g>
				<g>
					<path class="st36" d="M66.8,344.5l-47.4-47.4l-40.1,40.1l47.4,47.4c1.5,1.5,4,1.5,5.5,0L66.8,350
						C68.3,348.5,68.3,346,66.8,344.5z M-14.8,337.9c-0.7-0.7-0.7-1.7,0-2.4c0.7-0.7,1.7-0.7,2.4,0c0.7,0.7,0.7,1.7,0,2.4
						C-13.1,338.5-14.1,338.5-14.8,337.9z M-9.5,332.6c-0.7-0.7-0.7-1.7,0-2.4c0.7-0.7,1.7-0.7,2.4,0c0.7,0.7,0.7,1.7,0,2.4
						C-7.8,333.2-8.8,333.2-9.5,332.6z M-4.2,327.3c-0.7-0.7-0.7-1.7,0-2.4c0.7-0.7,1.7-0.7,2.4,0c0.7,0.7,0.7,1.7,0,2.4
						C-2.5,327.9-3.5,327.9-4.2,327.3z M1.3,321.8c-0.7-0.7-0.7-1.7,0-2.4c0.7-0.7,1.7-0.7,2.4,0c0.7,0.7,0.7,1.7,0,2.4
						C3,322.5,1.9,322.5,1.3,321.8z M6.6,316.5c-0.7-0.7-0.7-1.7,0-2.4c0.7-0.7,1.7-0.7,2.4,0c0.7,0.7,0.7,1.7,0,2.4
						C8.3,317.2,7.2,317.2,6.6,316.5z M12,311c-0.7-0.7-0.7-1.7,0-2.4c0.7-0.7,1.7-0.7,2.4,0c0.7,0.7,0.7,1.7,0,2.4
						C13.8,311.7,12.7,311.7,12,311z M17.3,305.8c-0.7-0.7-0.7-1.7,0-2.4c0.7-0.7,1.7-0.7,2.4,0c0.7,0.7,0.7,1.7,0,2.4
						C19,306.5,17.9,306.5,17.3,305.8z"/>
				</g>
				<g class="st42">
					<path d="M17.2,303.4C17.2,303.4,17.2,303.4,17.2,303.4c0.3-0.3,0.7-0.5,1-0.5c0,0-0.1-0.1-0.1-0.1c-0.7-0.7-1.5-1.4-2.1-2.1
						c0,0-0.1-0.1-0.1-0.1l-0.8,0.8c0,0,0.1,0.1,0.1,0.1C15.9,302.2,16.6,302.9,17.2,303.4z"/>
					<path d="M11.9,308.7c0,0,0.1-0.1,0.1-0.1c0.2-0.2,0.5-0.4,0.8-0.5c0,0-0.1,0-0.1-0.1c-0.7-0.7-1.5-1.4-2.1-2.1
						c0,0-0.1-0.1-0.1-0.1l-0.8,0.8c0,0,0.1,0.1,0.1,0.1C10.6,307.5,11.3,308.2,11.9,308.7z"/>
					<path d="M6.4,314.2c0-0.1,0.1-0.1,0.1-0.2c0.2-0.2,0.5-0.4,0.8-0.4c0,0,0,0-0.1-0.1c-0.7-0.7-1.5-1.4-2.1-2.1
						c0,0-0.1-0.1-0.1-0.1l-0.8,0.8c0,0,0.1,0.1,0.1,0.1C5.1,313,5.8,313.7,6.4,314.2z"/>
					<path d="M1.2,319.5c0,0,0.1-0.1,0.1-0.1c0.2-0.2,0.5-0.4,0.9-0.5c0,0-0.1,0-0.1-0.1c-0.7-0.7-1.5-1.4-2.1-2.1
						c0,0-0.1-0.1-0.1-0.1l-0.8,0.8c0,0,0.1,0.1,0.1,0.1C-0.2,318.2,0.6,318.9,1.2,319.5z"/>
					<path d="M-4.3,325C-4.3,324.9-4.2,324.9-4.3,325c0.3-0.3,0.6-0.5,1-0.6c0,0-0.1,0-0.1-0.1c-0.7-0.7-1.5-1.4-2.1-2.1
						c0,0-0.1-0.1-0.1-0.1l-0.8,0.8c0,0,0.1,0.1,0.1,0.1C-5.6,323.7-4.9,324.4-4.3,325z"/>
					<path d="M-9.6,330.3c0,0,0.1-0.1,0.1-0.1c0.2-0.2,0.5-0.4,0.8-0.5c0,0-0.1,0-0.1-0.1c-0.7-0.7-1.5-1.4-2.1-2.1
						c0,0-0.1-0.1-0.1-0.1l-0.8,0.8c0,0,0.1,0.1,0.1,0.1C-10.9,329-10.2,329.7-9.6,330.3z"/>
					<path d="M-14.9,335.6c0-0.1,0.1-0.1,0.1-0.2c0.2-0.2,0.5-0.4,0.8-0.4c0,0,0,0-0.1-0.1c-0.7-0.7-1.5-1.4-2.1-2.1
						c0,0-0.1-0.1-0.1-0.1l-0.8,0.8c0,0,0.1,0.1,0.1,0.1C-16.3,334.3-15.5,335-14.9,335.6z"/>
				</g>
				<g>
					<path class="st23" d="M19.9,303.6c-0.7-0.7-1.8-0.7-2.5,0c-0.7,0.7-0.7,1.8,0,2.5c0.7,0.7,1.8,0.7,2.5,0
						C20.6,305.4,20.6,304.3,19.9,303.6z M17.9,305.7c-0.5-0.5-0.5-1.2,0-1.7c0.5-0.5,1.2-0.5,1.7,0c0.5,0.5,0.5,1.2,0,1.7
						C19.1,306.1,18.3,306.1,17.9,305.7z"/>
					<path class="st23" d="M14.7,308.9c-0.7-0.7-1.8-0.7-2.5,0c-0.7,0.7-0.7,1.8,0,2.5c0.7,0.7,1.8,0.7,2.5,0
						C15.4,310.7,15.4,309.5,14.7,308.9z M12.6,310.9c-0.5-0.5-0.5-1.2,0-1.7c0.5-0.5,1.2-0.5,1.7,0c0.5,0.5,0.5,1.2,0,1.7
						C13.8,311.4,13.1,311.4,12.6,310.9z"/>
					<path class="st23" d="M9.2,314.4c-0.7-0.7-1.8-0.7-2.5,0c-0.7,0.7-0.7,1.8,0,2.5c0.7,0.7,1.8,0.7,2.5,0
						C9.9,316.2,9.9,315.1,9.2,314.4z M7.2,316.5c-0.5-0.5-0.5-1.2,0-1.7c0.5-0.5,1.2-0.5,1.7,0c0.5,0.5,0.5,1.2,0,1.7
						C8.4,316.9,7.6,316.9,7.2,316.5z"/>
					<path class="st23" d="M3.9,319.6c-0.7-0.7-1.8-0.7-2.5,0c-0.7,0.7-0.7,1.8,0,2.5s1.8,0.7,2.5,0C4.6,321.4,4.6,320.3,3.9,319.6z
						 M1.8,321.7c-0.5-0.5-0.5-1.2,0-1.7c0.5-0.5,1.2-0.5,1.7,0c0.5,0.5,0.5,1.2,0,1.7C3,322.1,2.3,322.1,1.8,321.7z"/>
					<path class="st23" d="M-1.5,325.1c-0.7-0.7-1.8-0.7-2.5,0c-0.7,0.7-0.7,1.8,0,2.5c0.7,0.7,1.8,0.7,2.5,0
						C-0.9,326.9-0.9,325.8-1.5,325.1z M-3.6,327.2c-0.5-0.5-0.5-1.2,0-1.7c0.5-0.5,1.2-0.5,1.7,0c0.5,0.5,0.5,1.2,0,1.7
						C-2.4,327.6-3.2,327.6-3.6,327.2z"/>
					<path class="st23" d="M-6.8,330.5c-0.7-0.7-1.8-0.7-2.5,0c-0.7,0.7-0.7,1.8,0,2.5c0.7,0.7,1.8,0.7,2.5,0
						C-6.1,332.2-6.1,331.1-6.8,330.5z M-8.9,332.5c-0.5-0.5-0.5-1.2,0-1.7s1.2-0.5,1.7,0c0.5,0.5,0.5,1.2,0,1.7
						C-7.7,333-8.4,333-8.9,332.5z"/>
					<path class="st23" d="M-12.2,335.7c-0.7-0.7-1.8-0.7-2.5,0c-0.7,0.7-0.7,1.8,0,2.5c0.7,0.7,1.8,0.7,2.5,0
						C-11.5,337.5-11.5,336.4-12.2,335.7z M-14.2,337.8c-0.5-0.5-0.5-1.2,0-1.7s1.2-0.5,1.7,0c0.5,0.5,0.5,1.2,0,1.7
						C-13,338.2-13.8,338.2-14.2,337.8z"/>
				</g>
				<g>
					<path class="st37" d="M19.7,303.4c-0.7-0.7-1.8-0.7-2.5,0c-0.7,0.7-0.7,1.8,0,2.5c0.7,0.7,1.8,0.7,2.5,0
						C20.4,305.2,20.4,304.1,19.7,303.4z M17.6,305.4c-0.5-0.5-0.5-1.2,0-1.7c0.5-0.5,1.2-0.5,1.7,0c0.5,0.5,0.5,1.2,0,1.7
						C18.8,305.9,18.1,305.9,17.6,305.4z"/>
					<path class="st37" d="M14.4,308.6c-0.7-0.7-1.8-0.7-2.5,0c-0.7,0.7-0.7,1.8,0,2.5c0.7,0.7,1.8,0.7,2.5,0
						C15.1,310.4,15.1,309.3,14.4,308.6z M12.4,310.7c-0.5-0.5-0.5-1.2,0-1.7c0.5-0.5,1.2-0.5,1.7,0c0.5,0.5,0.5,1.2,0,1.7
						C13.6,311.1,12.8,311.1,12.4,310.7z"/>
					<path class="st37" d="M9,314.2c-0.7-0.7-1.8-0.7-2.5,0c-0.7,0.7-0.7,1.8,0,2.5c0.7,0.7,1.8,0.7,2.5,0
						C9.7,316,9.7,314.9,9,314.2z M6.9,316.2c-0.5-0.5-0.5-1.2,0-1.7c0.5-0.5,1.2-0.5,1.7,0c0.5,0.5,0.5,1.2,0,1.7
						C8.1,316.7,7.4,316.7,6.9,316.2z"/>
					<path class="st37" d="M3.7,319.4c-0.7-0.7-1.8-0.7-2.5,0c-0.7,0.7-0.7,1.8,0,2.5s1.8,0.7,2.5,0C4.4,321.2,4.4,320,3.7,319.4z
						 M1.6,321.4c-0.5-0.5-0.5-1.2,0-1.7c0.5-0.5,1.2-0.5,1.7,0c0.5,0.5,0.5,1.2,0,1.7C2.8,321.9,2.1,321.9,1.6,321.4z"/>
					<path class="st37" d="M-1.8,324.8c-0.7-0.7-1.8-0.7-2.5,0c-0.7,0.7-0.7,1.8,0,2.5c0.7,0.7,1.8,0.7,2.5,0
						C-1.1,326.6-1.1,325.5-1.8,324.8z M-3.9,326.9c-0.5-0.5-0.5-1.2,0-1.7c0.5-0.5,1.2-0.5,1.7,0c0.5,0.5,0.5,1.2,0,1.7
						C-2.7,327.4-3.4,327.4-3.9,326.9z"/>
					<path class="st37" d="M-7,330.2c-0.7-0.7-1.8-0.7-2.5,0c-0.7,0.7-0.7,1.8,0,2.5c0.7,0.7,1.8,0.7,2.5,0
						C-6.3,332-6.3,330.9-7,330.2z M-9.1,332.3c-0.5-0.5-0.5-1.2,0-1.7c0.5-0.5,1.2-0.5,1.7,0c0.5,0.5,0.5,1.2,0,1.7
						C-7.9,332.7-8.6,332.7-9.1,332.3z"/>
					<path class="st37" d="M-12.4,335.5c-0.7-0.7-1.8-0.7-2.5,0c-0.7,0.7-0.7,1.8,0,2.5c0.7,0.7,1.8,0.7,2.5,0
						C-11.7,337.3-11.7,336.1-12.4,335.5z M-14.5,337.5c-0.5-0.5-0.5-1.2,0-1.7s1.2-0.5,1.7,0c0.5,0.5,0.5,1.2,0,1.7
						C-13.3,338-14,338-14.5,337.5z"/>
				</g>
				<g>
					<path class="st14" d="M18.8,304.1c-0.3-0.3-0.7-0.6-1.1-1c-0.7-0.7-1.5-1.4-2.1-2.1c-0.7-0.8-1.3-1.6-1.3-2.2
						c0-0.2,0-0.2,0.1-0.3c0.1-0.1,0.1-0.1,0.3-0.1c0.6,0,1.6,0.6,2.3,1.2l0.8-0.8c-0.7-0.6-2.1-1.6-3.2-1.5c-0.4,0-0.8,0.2-1.1,0.5
						c-0.2,0.3-0.4,0.7-0.3,1.1c0.1,0.8,0.8,1.9,1.6,2.8c0.7,0.8,1.5,1.6,2.1,2.2c0.6,0.5,1,0.9,1.2,1c0.1,0.1,0.2,0.1,0.3,0.1
						c0.2,0,0.3-0.1,0.4-0.2C19,304.6,19,304.3,18.8,304.1z"/>
					<path class="st14" d="M12.3,308.4c-0.7-0.7-1.5-1.4-2.1-2.1c-0.7-0.8-1.2-1.6-1.2-2.1c0-0.2,0-0.2,0.1-0.3
						c0.1-0.1,0.1-0.1,0.3-0.1c0.6,0,1.5,0.6,2.3,1.1l0.8-0.8c-0.7-0.6-2-1.5-3.1-1.4c-0.4,0-0.8,0.2-1,0.5
						c-0.2,0.3-0.4,0.7-0.3,1.1c0.1,0.8,0.7,1.8,1.6,2.8c0.7,0.8,1.5,1.6,2.2,2.2c0.6,0.5,1.1,0.9,1.2,1c0.1,0.1,0.2,0.1,0.3,0.1
						c0.2,0,0.3-0.1,0.4-0.2c0.2-0.2,0.1-0.6-0.1-0.7C13.2,309.2,12.7,308.8,12.3,308.4z"/>
					<path class="st14" d="M6.8,313.9c-0.7-0.7-1.5-1.4-2.1-2.1c-0.7-0.8-1.2-1.5-1.2-2.1c0-0.2,0-0.2,0.1-0.3
						c0.1-0.1,0.1-0.1,0.3-0.1c0.6,0,1.5,0.5,2.2,1.1l0.8-0.8c-0.7-0.6-2-1.5-3-1.4c-0.4,0-0.8,0.2-1.1,0.5
						c-0.2,0.3-0.4,0.7-0.3,1.1c0.1,0.8,0.7,1.8,1.5,2.7c0.7,0.8,1.5,1.6,2.2,2.2c0.6,0.6,1.1,1,1.3,1.1c0.1,0.1,0.2,0.1,0.3,0.1
						c0.2,0,0.3-0.1,0.4-0.2c0.2-0.2,0.1-0.6-0.1-0.7C7.7,314.7,7.3,314.3,6.8,313.9z"/>
					<path class="st14" d="M1.6,319.2c-0.7-0.7-1.5-1.4-2.1-2.1c-0.7-0.8-1.2-1.6-1.3-2.1c0-0.2,0-0.2,0.1-0.3
						c0.1-0.1,0.1-0.1,0.3-0.1c0.6,0,1.6,0.6,2.3,1.2l0.8-0.8c-0.7-0.6-2-1.5-3.1-1.5c-0.4,0-0.8,0.2-1.1,0.5
						c-0.2,0.3-0.4,0.7-0.3,1.1c0.1,0.8,0.7,1.8,1.6,2.8c0.7,0.8,1.5,1.6,2.2,2.2c0.6,0.5,1.1,0.9,1.2,1c0.1,0.1,0.2,0.1,0.3,0.1
						c0.2,0,0.3-0.1,0.4-0.2c0.2-0.2,0.1-0.6-0.1-0.7C2.4,319.9,2,319.5,1.6,319.2z"/>
					<path class="st14" d="M-3.9,324.6c-0.7-0.7-1.5-1.4-2.1-2.1c-0.7-0.8-1.2-1.6-1.2-2.1c0-0.2,0-0.2,0.1-0.3
						C-7.1,320-7,320-6.8,320c0.6,0,1.5,0.6,2.3,1.1l0.8-0.8c-0.7-0.6-2-1.5-3.1-1.4c-0.4,0-0.8,0.2-1.1,0.5
						c-0.2,0.3-0.4,0.7-0.3,1.1c0.1,0.8,0.7,1.8,1.5,2.7c0.7,0.8,1.5,1.6,2.2,2.2c0.6,0.6,1.1,1,1.2,1.1c0.1,0.1,0.2,0.1,0.3,0.1
						c0.2,0,0.3-0.1,0.4-0.2c0.2-0.2,0.1-0.6-0.1-0.7C-3,325.4-3.5,325-3.9,324.6z"/>
					<path class="st14" d="M-9.2,329.9c-0.7-0.7-1.5-1.4-2.1-2.1c-0.7-0.8-1.1-1.5-1.2-2c0-0.2,0-0.2,0.1-0.3
						c0.1-0.1,0.1-0.1,0.3-0.1c0.6,0,1.5,0.5,2.2,1.1l0.8-0.8c-0.7-0.6-2-1.5-3-1.4c-0.4,0-0.8,0.2-1.1,0.5
						c-0.2,0.3-0.4,0.7-0.3,1.1c0.1,0.8,0.7,1.8,1.5,2.7c0.7,0.8,1.5,1.6,2.2,2.2c0.6,0.6,1.1,1,1.3,1.1c0.1,0.1,0.2,0.1,0.3,0.1
						c0.2,0,0.3-0.1,0.4-0.2c0.2-0.2,0.1-0.6-0.1-0.7C-8.3,330.7-8.8,330.3-9.2,329.9z"/>
					<path class="st14" d="M-14.6,335.3c-0.7-0.7-1.5-1.4-2.1-2.1c-0.7-0.8-1.2-1.6-1.3-2.1c0-0.2,0-0.2,0.1-0.3
						c0.1-0.1,0.1-0.1,0.3-0.1c0.6,0,1.6,0.6,2.3,1.2l0.8-0.8c-0.7-0.6-2-1.5-3.1-1.5c-0.4,0-0.8,0.2-1.1,0.5
						c-0.2,0.3-0.4,0.7-0.3,1.1c0.1,0.8,0.7,1.8,1.6,2.8c0.7,0.8,1.5,1.6,2.2,2.2c0.6,0.5,1,0.9,1.2,1c0.1,0.1,0.2,0.1,0.3,0.1
						c0.2,0,0.3-0.1,0.4-0.2c0.2-0.2,0.1-0.6-0.1-0.7C-13.7,336-14.1,335.6-14.6,335.3z"/>
				</g>
				
					<rect x="15.9" y="361.4" transform="matrix(0.7071 -0.7071 0.7071 0.7071 -243.069 137.3524)" class="st37" width="56.7" height="1.4"/>
				
					<rect x="15.7" y="361.5" transform="matrix(0.7071 -0.7071 0.7071 0.7071 -242.9703 137.1139)" class="st23" width="56.7" height="0.7"/>
			</g>
		</g>
	</g>
</g>
<g id="DESIGNED_BY_FREEPIK">
	<g>
	</g>
	<g>
	</g>
	<g>
	</g>
	<g>
	</g>
	<g>
	</g>
	<g>
	</g>
	<g>
	</g>
	<g>
	</g>
	<g>
	</g>
	<g>
	</g>
	<g>
	</g>
	<g>
	</g>
	<g>
	</g>
	<g>
	</g>
	<g>
	</g>
</g>
</svg>
