<?xml version="1.0" encoding="utf-8"?>
<!-- Generator: Adobe Illustrator 19.2.0, SVG Export Plug-In . SVG Version: 6.00 Build 0)  -->
<svg version="1.1" id="Слой_1" xmlns="http://www.w3.org/2000/svg" xmlns:xlink="http://www.w3.org/1999/xlink" x="0px" y="0px"
	 viewBox="0 0 645.2 410.6" style="enable-background:new 0 0 645.2 410.6;" xml:space="preserve">
<style type="text/css">
	.st0{fill:#2E3D42;}
	.st1{fill:#41545B;}
	.st2{fill:#283538;}
	.st3{fill:#496066;}
</style>
<path class="st0" d="M569.9,9.9h-500c-10.9,0-19.7,8.8-19.7,19.7v342.1h539.3V29.6C589.6,18.7,580.7,9.9,569.9,9.9z M567.6,350.7
	L567.6,350.7H72.3V37.6h495.3V350.7z"/>
<path class="st0" d="M569.9,9.9h-500c-10.9,0-19.7,8.8-19.7,19.7v342.1h539.3V29.6C589.6,18.7,580.7,9.9,569.9,9.9z M567.5,350.7
	H72.3V37.6h495.3L567.5,350.7L567.5,350.7z"/>
<rect x="6.5" y="371.3" class="st1" width="626.7" height="20.4"/>
<path class="st2" d="M584.9,401.8h-530c-12.1,0-24.2-2-35.7-5.9l-12.6-4.2h626.7l-12.6,4.2C609.1,399.8,597.1,401.8,584.9,401.8z"/>
<path class="st3" d="M355.9,381.6h-72c-5.7,0-10.3-4.6-10.3-10.3l0,0h92.7l0,0C366.2,377,361.6,381.6,355.9,381.6z"/>
<circle class="st3" cx="319.9" cy="24.4" r="3.3"/>
</svg>
