<svg xmlns="http://www.w3.org/2000/svg" xmlns:xlink="http://www.w3.org/1999/xlink" xmlns:fi="http://pattern.flaticon.com/" x="0" y="0" width="2560" height="1280" viewBox="0 0 2560 1280"><rect x="0px" y="0px" width="100%" height="100%" opacity="1" fill="#ffffff"/><defs><g transform="matrix(0.1171875 0 0 0.1171875 108 38)" id="L1_471"><path d="M437.106,113.853h-45.405c-4.142,0-7.5,3.358-7.5,7.5c0,4.142,3.358,7.5,7.5,7.5h37.905v189.522H147.213    c-4.142,0-7.5,3.358-7.5,7.5c0,4.142,3.358,7.5,7.5,7.5h289.894c4.142,0,7.499-3.358,7.499-7.5V121.353    C444.606,117.211,441.248,113.853,437.106,113.853z"/><path d="M361.702,113.853H74.894c-4.142,0-7.5,3.358-7.5,7.5v204.522c0,4.142,3.358,7.5,7.5,7.5h42.319c4.142,0,7.5-3.358,7.5-7.5    c0-4.142-3.358-7.5-7.5-7.5H82.394V128.853h279.308c4.142,0,7.5-3.358,7.5-7.5C369.202,117.211,365.844,113.853,361.702,113.853z"/><circle cx="256" cy="99" r="7"/><path d="M185.94,206.391c-4.142,0-7.5,3.357-7.5,7.5v12.679c0,4.142,3.358,7.5,7.5,7.5c4.142,0,7.5-3.358,7.5-7.5v-12.679    C193.44,209.748,190.082,206.391,185.94,206.391z"/><path d="M326.06,206.391c-4.142,0-7.5,3.357-7.5,7.5v12.679c0,4.142,3.358,7.5,7.5,7.5c4.142,0,7.5-3.358,7.5-7.5v-12.679    C333.56,209.748,330.202,206.391,326.06,206.391z"/><path d="M278.226,220.042c-3.117-2.727-7.855-2.409-10.581,0.71c-2.825,3.232-7.07,5.086-11.645,5.086s-8.819-1.854-11.646-5.086    c-2.726-3.119-7.464-3.437-10.583-0.71c-3.119,2.726-3.437,7.464-0.71,10.583c5.674,6.492,14.035,10.214,22.938,10.214    c8.903,0,17.264-3.723,22.938-10.214C281.663,227.506,281.345,222.768,278.226,220.042z"/><path d="M504.5,362.053h-16.212V112.712c0-23.457-19.083-42.54-42.54-42.54H66.252c-23.457,0-42.54,19.083-42.54,42.54v249.341    H7.5c-4.142,0-7.5,3.358-7.5,7.5v28.49c0,24.143,19.642,43.785,43.785,43.785h424.43c24.143,0,43.785-19.642,43.785-43.785v-28.49    C512,365.411,508.642,362.053,504.5,362.053z M38.712,112.712c0-15.185,12.354-27.54,27.54-27.54h379.496    c15.186,0,27.54,12.354,27.54,27.54v249.341H38.712V112.712z M334.504,377.053v1.916c0,8.534-6.943,15.477-15.477,15.477H192.973    c-8.534,0-15.477-6.943-15.477-15.477v-1.916H334.504z M497,398.043c0,15.872-12.913,28.785-28.785,28.785H43.785    C27.913,426.828,15,413.915,15,398.043v-20.99h147.496v1.916c0,16.805,13.672,30.477,30.477,30.477h126.056    c16.805,0,30.477-13.672,30.477-30.477v-1.916H497V398.043z"/></g><g transform="matrix(0.1171875 0 0 0.1171875 272 212)" id="L1_478"><rect x="171px" y="150px" width="330px" height="211px" fill="#e3a832"/><g><path d="M501.801,139.942H171.312c-5.633,0-10.199,4.566-10.199,10.199v19.235h-97.21   c-5.633,0-10.199,4.566-10.199,10.199c0,5.633,4.566,10.199,10.199,10.199h97.21v132.452h-58.101   c-5.633,0-10.199,4.566-10.199,10.199s4.566,10.199,10.199,10.199h58.101v19.235c0,5.633,4.566,10.199,10.199,10.199h330.489   c5.633,0,10.199-4.566,10.199-10.199V150.141C512,144.508,507.434,139.942,501.801,139.942z M476.641,160.34l-140.07,114.985   L197.14,160.34H476.641z M181.511,351.661v-177.77l148.557,122.51c1.884,1.553,4.186,2.331,6.489,2.331   c2.295,0,4.591-0.772,6.471-2.316L491.602,174.45v177.211H181.511z" fill="#2e2e2e"/><path d="M129.873,254.967c0-5.633-4.566-10.199-10.199-10.199H10.199C4.566,244.768,0,249.334,0,254.967   s4.566,10.199,10.199,10.199h109.474C125.306,265.167,129.873,260.6,129.873,254.967z" fill="#2e2e2e"/><path d="M69.355,322.227h-5.451c-5.633,0-10.199,4.566-10.199,10.199s4.566,10.199,10.199,10.199h5.451   c5.633,0,10.199-4.566,10.199-10.199S74.988,322.227,69.355,322.227z" fill="#2e2e2e"/></g></g></defs><g fi:class="KUsePattern"><pattern id="pattern_L1_471" width="350" height="350" patternUnits="userSpaceOnUse"><use xlink:href="#L1_471" x="-350" y="-350"/><use xlink:href="#L1_471" x="0" y="-350"/><use xlink:href="#L1_471" x="350" y="-350"/><use xlink:href="#L1_471" x="-350" y="0"/><use xlink:href="#L1_471" x="0" y="0"/><use xlink:href="#L1_471" x="350" y="0"/><use xlink:href="#L1_471" x="-350" y="350"/><use xlink:href="#L1_471" x="0" y="350"/><use xlink:href="#L1_471" x="350" y="350"/></pattern><rect x="0" y="0" width="100%" height="100%" fill="url(#pattern_L1_471)"/></g><g fi:class="KUsePattern"><pattern id="pattern_L1_478" width="350" height="350" patternUnits="userSpaceOnUse"><use xlink:href="#L1_478" x="-350" y="-350"/><use xlink:href="#L1_478" x="0" y="-350"/><use xlink:href="#L1_478" x="350" y="-350"/><use xlink:href="#L1_478" x="-350" y="0"/><use xlink:href="#L1_478" x="0" y="0"/><use xlink:href="#L1_478" x="350" y="0"/><use xlink:href="#L1_478" x="-350" y="350"/><use xlink:href="#L1_478" x="0" y="350"/><use xlink:href="#L1_478" x="350" y="350"/></pattern><rect x="0" y="0" width="100%" height="100%" fill="url(#pattern_L1_478)"/></g></svg>